M48
; DRILL file KiCad 10.0.0 date 2026-05-21T10:01:02
; FORMAT={-:-/ absolute / inch / decimal}
; #@! TF.CreationDate,2026-05-21T10:01:02+09:00
; #@! TF.GenerationSoftware,Kicad,Pcbnew,10.0.0
; #@! TF.FileFunction,Plated,1,2,PTH
FMAT,2
INCH
; #@! TA.AperFunction,Plated,PTH,ViaDrill
T1C0.0354
; #@! TA.AperFunction,Plated,PTH,ComponentDrill
T2C0.0374
; #@! TA.AperFunction,Plated,PTH,ComponentDrill
T3C0.0394
; #@! TA.AperFunction,Plated,PTH,ComponentDrill
T4C0.0433
; #@! TA.AperFunction,Plated,PTH,ComponentDrill
T5C0.1378
%
G90
G05
T1
X2.1024Y-2.2598
X2.2677Y-2.3465
X2.4409Y-2.3465
X2.5295Y-1.9665
X2.6063Y-2.0236
X2.6457Y-3.0787
X2.6614Y-3.4567
X2.7402Y-3.0472
X3.0472Y-1.8661
X3.1654Y-4.124
X3.3071Y-3.8583
X3.3071Y-4.0079
X3.3228Y-3.3228
X3.3543Y-2.811
X3.3543Y-3.4094
X3.3622Y-3.1102
X3.4094Y-2.189
X3.4173Y-2.7087
X3.4331Y-3.6535
X3.5197Y-2.5197
X3.9134Y-1.9449
X3.937Y-3.7165
X4.0256Y-2.5827
X4.0256Y-3.1575
X4.2677Y-2.4016
T2
X3.5453Y-3.3406
X3.6201Y-2.1909
X3.6319Y-2.9154
X3.6437Y-3.3406
X3.7185Y-2.1909
X3.7303Y-2.9154
X3.7421Y-3.3406
X3.8169Y-2.1909
X3.8287Y-2.9154
X3.8406Y-3.3406
X3.9154Y-2.1909
X3.9272Y-2.9154
X3.939Y-3.3406
X4.0138Y-2.1909
X4.0256Y-2.9154
X4.0374Y-3.3406
T3
X2.3413Y-2.1752
X2.3543Y-2.5098
X2.3543Y-2.6098
X2.3543Y-2.7098
X2.3543Y-2.8098
X2.3543Y-2.9098
X2.3543Y-3.0098
X2.3543Y-3.1098
X2.3543Y-3.2098
X2.3543Y-3.3098
X2.3543Y-3.4098
X2.3543Y-3.5098
X2.3543Y-3.6098
X2.4413Y-2.1752
X2.5413Y-2.1752
X2.6413Y-2.1752
X2.7413Y-2.1752
X2.8413Y-2.1752
X2.8533Y-2.3327
X2.9413Y-2.1752
X2.9533Y-2.3327
X3.0413Y-2.1752
X3.0551Y-2.5098
X3.0551Y-2.6098
X3.0551Y-2.7098
X3.0551Y-2.8098
X3.0551Y-2.9098
X3.0551Y-3.0098
X3.0551Y-3.1098
X3.0551Y-3.2098
X3.0551Y-3.3098
X3.0551Y-3.4098
X3.0551Y-3.5098
X3.0551Y-3.6098
X3.1413Y-2.1752
X3.2224Y-3.5073
X3.2224Y-3.6073
X3.2413Y-2.1752
X3.9256Y-2.4311
X3.9256Y-2.7264
X4.0256Y-2.4311
X4.0256Y-2.7264
T4
X2.6575Y-3.8583
X2.6575Y-4.0354
X2.9134Y-3.8583
X2.9134Y-4.0354
X3.6122Y-3.8681
X3.6122Y-4.0453
X3.8681Y-3.8681
X3.8681Y-4.0453
T5
X2.1654Y-4.0551
X2.1732Y-1.9291
X4.252Y-1.9291
X4.252Y-4.0551
M30
