%TF.GenerationSoftware,KiCad,Pcbnew,10.0.0*%
%TF.CreationDate,2026-05-21T10:01:02+09:00*%
%TF.ProjectId,tabemaru trogorilla control board,74616265-6d61-4727-9520-74726f676f72,rev?*%
%TF.SameCoordinates,Original*%
%TF.FileFunction,Drillmap*%
%TF.FilePolarity,Positive*%
%FSLAX45Y45*%
G04 Gerber Fmt 4.5, Leading zero omitted, Abs format (unit mm)*
G04 Created by KiCad (PCBNEW 10.0.0) date 2026-05-21 10:01:02*
%MOMM*%
%LPD*%
G01*
G04 APERTURE LIST*
%ADD10C,0.050000*%
%ADD11C,0.200000*%
G04 APERTURE END LIST*
D10*
X4950000Y-4400000D02*
X11350000Y-4400000D01*
X11350000Y-10800000D01*
X4950000Y-10800000D01*
X4950000Y-4400000D01*
D11*
X5208277Y-11113984D02*
X5208277Y-10913984D01*
X5208277Y-10913984D02*
X5255896Y-10913984D01*
X5255896Y-10913984D02*
X5284467Y-10923508D01*
X5284467Y-10923508D02*
X5303515Y-10942555D01*
X5303515Y-10942555D02*
X5313039Y-10961603D01*
X5313039Y-10961603D02*
X5322563Y-10999698D01*
X5322563Y-10999698D02*
X5322563Y-11028270D01*
X5322563Y-11028270D02*
X5313039Y-11066365D01*
X5313039Y-11066365D02*
X5303515Y-11085412D01*
X5303515Y-11085412D02*
X5284467Y-11104460D01*
X5284467Y-11104460D02*
X5255896Y-11113984D01*
X5255896Y-11113984D02*
X5208277Y-11113984D01*
X5408277Y-11113984D02*
X5408277Y-10980650D01*
X5408277Y-11018746D02*
X5417801Y-10999698D01*
X5417801Y-10999698D02*
X5427324Y-10990174D01*
X5427324Y-10990174D02*
X5446372Y-10980650D01*
X5446372Y-10980650D02*
X5465420Y-10980650D01*
X5532086Y-11113984D02*
X5532086Y-10980650D01*
X5532086Y-10913984D02*
X5522563Y-10923508D01*
X5522563Y-10923508D02*
X5532086Y-10933031D01*
X5532086Y-10933031D02*
X5541610Y-10923508D01*
X5541610Y-10923508D02*
X5532086Y-10913984D01*
X5532086Y-10913984D02*
X5532086Y-10933031D01*
X5655896Y-11113984D02*
X5636848Y-11104460D01*
X5636848Y-11104460D02*
X5627324Y-11085412D01*
X5627324Y-11085412D02*
X5627324Y-10913984D01*
X5760658Y-11113984D02*
X5741610Y-11104460D01*
X5741610Y-11104460D02*
X5732086Y-11085412D01*
X5732086Y-11085412D02*
X5732086Y-10913984D01*
X5989229Y-11113984D02*
X5989229Y-10913984D01*
X5989229Y-10913984D02*
X6055896Y-11056841D01*
X6055896Y-11056841D02*
X6122562Y-10913984D01*
X6122562Y-10913984D02*
X6122562Y-11113984D01*
X6303515Y-11113984D02*
X6303515Y-11009222D01*
X6303515Y-11009222D02*
X6293991Y-10990174D01*
X6293991Y-10990174D02*
X6274943Y-10980650D01*
X6274943Y-10980650D02*
X6236848Y-10980650D01*
X6236848Y-10980650D02*
X6217801Y-10990174D01*
X6303515Y-11104460D02*
X6284467Y-11113984D01*
X6284467Y-11113984D02*
X6236848Y-11113984D01*
X6236848Y-11113984D02*
X6217801Y-11104460D01*
X6217801Y-11104460D02*
X6208277Y-11085412D01*
X6208277Y-11085412D02*
X6208277Y-11066365D01*
X6208277Y-11066365D02*
X6217801Y-11047317D01*
X6217801Y-11047317D02*
X6236848Y-11037793D01*
X6236848Y-11037793D02*
X6284467Y-11037793D01*
X6284467Y-11037793D02*
X6303515Y-11028270D01*
X6398753Y-10980650D02*
X6398753Y-11180650D01*
X6398753Y-10990174D02*
X6417801Y-10980650D01*
X6417801Y-10980650D02*
X6455896Y-10980650D01*
X6455896Y-10980650D02*
X6474943Y-10990174D01*
X6474943Y-10990174D02*
X6484467Y-10999698D01*
X6484467Y-10999698D02*
X6493991Y-11018746D01*
X6493991Y-11018746D02*
X6493991Y-11075889D01*
X6493991Y-11075889D02*
X6484467Y-11094936D01*
X6484467Y-11094936D02*
X6474943Y-11104460D01*
X6474943Y-11104460D02*
X6455896Y-11113984D01*
X6455896Y-11113984D02*
X6417801Y-11113984D01*
X6417801Y-11113984D02*
X6398753Y-11104460D01*
X6579705Y-11094936D02*
X6589229Y-11104460D01*
X6589229Y-11104460D02*
X6579705Y-11113984D01*
X6579705Y-11113984D02*
X6570182Y-11104460D01*
X6570182Y-11104460D02*
X6579705Y-11094936D01*
X6579705Y-11094936D02*
X6579705Y-11113984D01*
X6579705Y-10990174D02*
X6589229Y-10999698D01*
X6589229Y-10999698D02*
X6579705Y-11009222D01*
X6579705Y-11009222D02*
X6570182Y-10999698D01*
X6570182Y-10999698D02*
X6579705Y-10990174D01*
X6579705Y-10990174D02*
X6579705Y-11009222D01*
M02*
