%TF.GenerationSoftware,KiCad,Pcbnew,10.0.0*%
%TF.CreationDate,2026-05-21T10:00:46+09:00*%
%TF.ProjectId,tabemaru trogorilla control board,74616265-6d61-4727-9520-74726f676f72,rev?*%
%TF.SameCoordinates,Original*%
%TF.FileFunction,Soldermask,Bot*%
%TF.FilePolarity,Negative*%
%FSLAX46Y46*%
G04 Gerber Fmt 4.6, Leading zero omitted, Abs format (unit mm)*
G04 Created by KiCad (PCBNEW 10.0.0) date 2026-05-21 10:00:46*
%MOMM*%
%LPD*%
G01*
G04 APERTURE LIST*
G04 Aperture macros list*
%AMRoundRect*
0 Rectangle with rounded corners*
0 $1 Rounding radius*
0 $2 $3 $4 $5 $6 $7 $8 $9 X,Y pos of 4 corners*
0 Add a 4 corners polygon primitive as box body*
4,1,4,$2,$3,$4,$5,$6,$7,$8,$9,$2,$3,0*
0 Add four circle primitives for the rounded corners*
1,1,$1+$1,$2,$3*
1,1,$1+$1,$4,$5*
1,1,$1+$1,$6,$7*
1,1,$1+$1,$8,$9*
0 Add four rect primitives between the rounded corners*
20,1,$1+$1,$2,$3,$4,$5,0*
20,1,$1+$1,$4,$5,$6,$7,0*
20,1,$1+$1,$6,$7,$8,$9,0*
20,1,$1+$1,$8,$9,$2,$3,0*%
G04 Aperture macros list end*
%ADD10C,2.000000*%
%ADD11R,1.700000X1.700000*%
%ADD12C,1.700000*%
%ADD13C,7.000000*%
%ADD14RoundRect,0.250000X-0.600000X-0.725000X0.600000X-0.725000X0.600000X0.725000X-0.600000X0.725000X0*%
%ADD15O,1.700000X1.950000*%
G04 APERTURE END LIST*
D10*
%TO.C,SW2*%
X98250000Y-102750000D03*
X91750000Y-102750000D03*
X98250000Y-98250000D03*
X91750000Y-98250000D03*
%TD*%
D11*
%TO.C,C1*%
X72475000Y-59250000D03*
D12*
X75015000Y-59250000D03*
%TD*%
D11*
%TO.C,C2*%
X102250000Y-61750000D03*
D12*
X99710000Y-61750000D03*
%TD*%
D13*
%TO.C,H5*%
X108000000Y-49000000D03*
%TD*%
%TO.C,H7*%
X55000000Y-103000000D03*
%TD*%
D14*
%TO.C,J3*%
X92250000Y-74050000D03*
D15*
X94750000Y-74050000D03*
X97250000Y-74050000D03*
X99750000Y-74050000D03*
X102250000Y-74050000D03*
%TD*%
D13*
%TO.C,H6*%
X55200000Y-49000000D03*
%TD*%
D11*
%TO.C,J1*%
X59800000Y-63750000D03*
D12*
X59800000Y-66290000D03*
X59800000Y-68830000D03*
X59800000Y-71370000D03*
X59800000Y-73910000D03*
X59800000Y-76450000D03*
X59800000Y-78990000D03*
X59800000Y-81530000D03*
X59800000Y-84070000D03*
X59800000Y-86610000D03*
X59800000Y-89150000D03*
X59800000Y-91690000D03*
%TD*%
D11*
%TO.C,C4*%
X81850000Y-91625000D03*
D12*
X81850000Y-89085000D03*
%TD*%
D13*
%TO.C,H8*%
X108000000Y-103000000D03*
%TD*%
D11*
%TO.C,C3*%
X102250000Y-69250000D03*
D12*
X99710000Y-69250000D03*
%TD*%
D10*
%TO.C,SW1*%
X74000000Y-102500000D03*
X67500000Y-102500000D03*
X74000000Y-98000000D03*
X67500000Y-98000000D03*
%TD*%
D11*
%TO.C,J5*%
X59470000Y-55250000D03*
D12*
X62010000Y-55250000D03*
X64550000Y-55250000D03*
X67090000Y-55250000D03*
X69630000Y-55250000D03*
X72170000Y-55250000D03*
X74710000Y-55250000D03*
X77250000Y-55250000D03*
X79790000Y-55250000D03*
X82330000Y-55250000D03*
%TD*%
D14*
%TO.C,J2*%
X91950000Y-55650000D03*
D15*
X94450000Y-55650000D03*
X96950000Y-55650000D03*
X99450000Y-55650000D03*
X101950000Y-55650000D03*
%TD*%
D11*
%TO.C,J6*%
X77600000Y-63750000D03*
D12*
X77600000Y-66290000D03*
X77600000Y-68830000D03*
X77600000Y-71370000D03*
X77600000Y-73910000D03*
X77600000Y-76450000D03*
X77600000Y-78990000D03*
X77600000Y-81530000D03*
X77600000Y-84070000D03*
X77600000Y-86610000D03*
X77600000Y-89150000D03*
X77600000Y-91690000D03*
%TD*%
D14*
%TO.C,J4*%
X90050000Y-84850000D03*
D15*
X92550000Y-84850000D03*
X95050000Y-84850000D03*
X97550000Y-84850000D03*
X100050000Y-84850000D03*
X102550000Y-84850000D03*
%TD*%
M02*
