%TF.GenerationSoftware,KiCad,Pcbnew,10.0.0*%
%TF.CreationDate,2026-05-21T10:01:02+09:00*%
%TF.ProjectId,tabemaru trogorilla control board,74616265-6d61-4727-9520-74726f676f72,rev?*%
%TF.SameCoordinates,Original*%
%TF.FileFunction,Drillmap*%
%TF.FilePolarity,Positive*%
%FSLAX45Y45*%
G04 Gerber Fmt 4.5, Leading zero omitted, Abs format (unit mm)*
G04 Created by KiCad (PCBNEW 10.0.0) date 2026-05-21 10:01:02*
%MOMM*%
%LPD*%
G01*
G04 APERTURE LIST*
%ADD10C,0.050000*%
%ADD11C,0.200000*%
%ADD12C,0.100000*%
%ADD13C,0.110000*%
%ADD14C,0.350000*%
G04 APERTURE END LIST*
D10*
X4950000Y-4400000D02*
X11350000Y-4400000D01*
X11350000Y-10800000D01*
X4950000Y-10800000D01*
X4950000Y-4400000D01*
D11*
D12*
X5295000Y-5695000D02*
X5385000Y-5785000D01*
X5385000Y-5695000D02*
X5295000Y-5785000D01*
X5715000Y-5915000D02*
X5805000Y-6005000D01*
X5805000Y-5915000D02*
X5715000Y-6005000D01*
X6155000Y-5915000D02*
X6245000Y-6005000D01*
X6245000Y-5915000D02*
X6155000Y-6005000D01*
X6380000Y-4950000D02*
X6470000Y-5040000D01*
X6470000Y-4950000D02*
X6380000Y-5040000D01*
X6575000Y-5095000D02*
X6665000Y-5185000D01*
X6665000Y-5095000D02*
X6575000Y-5185000D01*
X6675000Y-7775000D02*
X6765000Y-7865000D01*
X6765000Y-7775000D02*
X6675000Y-7865000D01*
X6715000Y-8735000D02*
X6805000Y-8825000D01*
X6805000Y-8735000D02*
X6715000Y-8825000D01*
X6915000Y-7695000D02*
X7005000Y-7785000D01*
X7005000Y-7695000D02*
X6915000Y-7785000D01*
X7695000Y-4695000D02*
X7785000Y-4785000D01*
X7785000Y-4695000D02*
X7695000Y-4785000D01*
X7995000Y-10430000D02*
X8085000Y-10520000D01*
X8085000Y-10430000D02*
X7995000Y-10520000D01*
X8355000Y-9755000D02*
X8445000Y-9845000D01*
X8445000Y-9755000D02*
X8355000Y-9845000D01*
X8355000Y-10135000D02*
X8445000Y-10225000D01*
X8445000Y-10135000D02*
X8355000Y-10225000D01*
X8395000Y-8395000D02*
X8485000Y-8485000D01*
X8485000Y-8395000D02*
X8395000Y-8485000D01*
X8475000Y-7095000D02*
X8565000Y-7185000D01*
X8565000Y-7095000D02*
X8475000Y-7185000D01*
X8475000Y-8615000D02*
X8565000Y-8705000D01*
X8565000Y-8615000D02*
X8475000Y-8705000D01*
X8495000Y-7855000D02*
X8585000Y-7945000D01*
X8585000Y-7855000D02*
X8495000Y-7945000D01*
X8615000Y-5515000D02*
X8705000Y-5605000D01*
X8705000Y-5515000D02*
X8615000Y-5605000D01*
X8635000Y-6835000D02*
X8725000Y-6925000D01*
X8725000Y-6835000D02*
X8635000Y-6925000D01*
X8675000Y-9235000D02*
X8765000Y-9325000D01*
X8765000Y-9235000D02*
X8675000Y-9325000D01*
X8895000Y-6355000D02*
X8985000Y-6445000D01*
X8985000Y-6355000D02*
X8895000Y-6445000D01*
X9895000Y-4895000D02*
X9985000Y-4985000D01*
X9985000Y-4895000D02*
X9895000Y-4985000D01*
X9955000Y-9395000D02*
X10045000Y-9485000D01*
X10045000Y-9395000D02*
X9955000Y-9485000D01*
X10180000Y-6515000D02*
X10270000Y-6605000D01*
X10270000Y-6515000D02*
X10180000Y-6605000D01*
X10180000Y-7975000D02*
X10270000Y-8065000D01*
X10270000Y-7975000D02*
X10180000Y-8065000D01*
X10795000Y-6055000D02*
X10885000Y-6145000D01*
X10885000Y-6055000D02*
X10795000Y-6145000D01*
X9052500Y-8485000D02*
G75*
G02*
X8957500Y-8485000I-47500J0D01*
G01*
X8957500Y-8485000D02*
G75*
G02*
X9052500Y-8485000I47500J0D01*
G01*
X9242500Y-5565000D02*
G75*
G02*
X9147500Y-5565000I-47500J0D01*
G01*
X9147500Y-5565000D02*
G75*
G02*
X9242500Y-5565000I47500J0D01*
G01*
X9272500Y-7405000D02*
G75*
G02*
X9177500Y-7405000I-47500J0D01*
G01*
X9177500Y-7405000D02*
G75*
G02*
X9272500Y-7405000I47500J0D01*
G01*
X9302500Y-8485000D02*
G75*
G02*
X9207500Y-8485000I-47500J0D01*
G01*
X9207500Y-8485000D02*
G75*
G02*
X9302500Y-8485000I47500J0D01*
G01*
X9492500Y-5565000D02*
G75*
G02*
X9397500Y-5565000I-47500J0D01*
G01*
X9397500Y-5565000D02*
G75*
G02*
X9492500Y-5565000I47500J0D01*
G01*
X9522500Y-7405000D02*
G75*
G02*
X9427500Y-7405000I-47500J0D01*
G01*
X9427500Y-7405000D02*
G75*
G02*
X9522500Y-7405000I47500J0D01*
G01*
X9552500Y-8485000D02*
G75*
G02*
X9457500Y-8485000I-47500J0D01*
G01*
X9457500Y-8485000D02*
G75*
G02*
X9552500Y-8485000I47500J0D01*
G01*
X9742500Y-5565000D02*
G75*
G02*
X9647500Y-5565000I-47500J0D01*
G01*
X9647500Y-5565000D02*
G75*
G02*
X9742500Y-5565000I47500J0D01*
G01*
X9772500Y-7405000D02*
G75*
G02*
X9677500Y-7405000I-47500J0D01*
G01*
X9677500Y-7405000D02*
G75*
G02*
X9772500Y-7405000I47500J0D01*
G01*
X9802500Y-8485000D02*
G75*
G02*
X9707500Y-8485000I-47500J0D01*
G01*
X9707500Y-8485000D02*
G75*
G02*
X9802500Y-8485000I47500J0D01*
G01*
X9992500Y-5565000D02*
G75*
G02*
X9897500Y-5565000I-47500J0D01*
G01*
X9897500Y-5565000D02*
G75*
G02*
X9992500Y-5565000I47500J0D01*
G01*
X10022500Y-7405000D02*
G75*
G02*
X9927500Y-7405000I-47500J0D01*
G01*
X9927500Y-7405000D02*
G75*
G02*
X10022500Y-7405000I47500J0D01*
G01*
X10052500Y-8485000D02*
G75*
G02*
X9957500Y-8485000I-47500J0D01*
G01*
X9957500Y-8485000D02*
G75*
G02*
X10052500Y-8485000I47500J0D01*
G01*
X10242500Y-5565000D02*
G75*
G02*
X10147500Y-5565000I-47500J0D01*
G01*
X10147500Y-5565000D02*
G75*
G02*
X10242500Y-5565000I47500J0D01*
G01*
X10272500Y-7405000D02*
G75*
G02*
X10177500Y-7405000I-47500J0D01*
G01*
X10177500Y-7405000D02*
G75*
G02*
X10272500Y-7405000I47500J0D01*
G01*
X10302500Y-8485000D02*
G75*
G02*
X10207500Y-8485000I-47500J0D01*
G01*
X10207500Y-8485000D02*
G75*
G02*
X10302500Y-8485000I47500J0D01*
G01*
X5947000Y-5475000D02*
X5947000Y-5575000D01*
X5897000Y-5525000D02*
X5997000Y-5525000D01*
X5980000Y-6325000D02*
X5980000Y-6425000D01*
X5930000Y-6375000D02*
X6030000Y-6375000D01*
X5980000Y-6579000D02*
X5980000Y-6679000D01*
X5930000Y-6629000D02*
X6030000Y-6629000D01*
X5980000Y-6833000D02*
X5980000Y-6933000D01*
X5930000Y-6883000D02*
X6030000Y-6883000D01*
X5980000Y-7087000D02*
X5980000Y-7187000D01*
X5930000Y-7137000D02*
X6030000Y-7137000D01*
X5980000Y-7341000D02*
X5980000Y-7441000D01*
X5930000Y-7391000D02*
X6030000Y-7391000D01*
X5980000Y-7595000D02*
X5980000Y-7695000D01*
X5930000Y-7645000D02*
X6030000Y-7645000D01*
X5980000Y-7849000D02*
X5980000Y-7949000D01*
X5930000Y-7899000D02*
X6030000Y-7899000D01*
X5980000Y-8103000D02*
X5980000Y-8203000D01*
X5930000Y-8153000D02*
X6030000Y-8153000D01*
X5980000Y-8357000D02*
X5980000Y-8457000D01*
X5930000Y-8407000D02*
X6030000Y-8407000D01*
X5980000Y-8611000D02*
X5980000Y-8711000D01*
X5930000Y-8661000D02*
X6030000Y-8661000D01*
X5980000Y-8865000D02*
X5980000Y-8965000D01*
X5930000Y-8915000D02*
X6030000Y-8915000D01*
X5980000Y-9119000D02*
X5980000Y-9219000D01*
X5930000Y-9169000D02*
X6030000Y-9169000D01*
X6201000Y-5475000D02*
X6201000Y-5575000D01*
X6151000Y-5525000D02*
X6251000Y-5525000D01*
X6455000Y-5475000D02*
X6455000Y-5575000D01*
X6405000Y-5525000D02*
X6505000Y-5525000D01*
X6709000Y-5475000D02*
X6709000Y-5575000D01*
X6659000Y-5525000D02*
X6759000Y-5525000D01*
X6963000Y-5475000D02*
X6963000Y-5575000D01*
X6913000Y-5525000D02*
X7013000Y-5525000D01*
X7217000Y-5475000D02*
X7217000Y-5575000D01*
X7167000Y-5525000D02*
X7267000Y-5525000D01*
X7247500Y-5875000D02*
X7247500Y-5975000D01*
X7197500Y-5925000D02*
X7297500Y-5925000D01*
X7471000Y-5475000D02*
X7471000Y-5575000D01*
X7421000Y-5525000D02*
X7521000Y-5525000D01*
X7501500Y-5875000D02*
X7501500Y-5975000D01*
X7451500Y-5925000D02*
X7551500Y-5925000D01*
X7725000Y-5475000D02*
X7725000Y-5575000D01*
X7675000Y-5525000D02*
X7775000Y-5525000D01*
X7760000Y-6325000D02*
X7760000Y-6425000D01*
X7710000Y-6375000D02*
X7810000Y-6375000D01*
X7760000Y-6579000D02*
X7760000Y-6679000D01*
X7710000Y-6629000D02*
X7810000Y-6629000D01*
X7760000Y-6833000D02*
X7760000Y-6933000D01*
X7710000Y-6883000D02*
X7810000Y-6883000D01*
X7760000Y-7087000D02*
X7760000Y-7187000D01*
X7710000Y-7137000D02*
X7810000Y-7137000D01*
X7760000Y-7341000D02*
X7760000Y-7441000D01*
X7710000Y-7391000D02*
X7810000Y-7391000D01*
X7760000Y-7595000D02*
X7760000Y-7695000D01*
X7710000Y-7645000D02*
X7810000Y-7645000D01*
X7760000Y-7849000D02*
X7760000Y-7949000D01*
X7710000Y-7899000D02*
X7810000Y-7899000D01*
X7760000Y-8103000D02*
X7760000Y-8203000D01*
X7710000Y-8153000D02*
X7810000Y-8153000D01*
X7760000Y-8357000D02*
X7760000Y-8457000D01*
X7710000Y-8407000D02*
X7810000Y-8407000D01*
X7760000Y-8611000D02*
X7760000Y-8711000D01*
X7710000Y-8661000D02*
X7810000Y-8661000D01*
X7760000Y-8865000D02*
X7760000Y-8965000D01*
X7710000Y-8915000D02*
X7810000Y-8915000D01*
X7760000Y-9119000D02*
X7760000Y-9219000D01*
X7710000Y-9169000D02*
X7810000Y-9169000D01*
X7979000Y-5475000D02*
X7979000Y-5575000D01*
X7929000Y-5525000D02*
X8029000Y-5525000D01*
X8185000Y-8858500D02*
X8185000Y-8958500D01*
X8135000Y-8908500D02*
X8235000Y-8908500D01*
X8185000Y-9112500D02*
X8185000Y-9212500D01*
X8135000Y-9162500D02*
X8235000Y-9162500D01*
X8233000Y-5475000D02*
X8233000Y-5575000D01*
X8183000Y-5525000D02*
X8283000Y-5525000D01*
X9971000Y-6125000D02*
X9971000Y-6225000D01*
X9921000Y-6175000D02*
X10021000Y-6175000D01*
X9971000Y-6875000D02*
X9971000Y-6975000D01*
X9921000Y-6925000D02*
X10021000Y-6925000D01*
X10225000Y-6125000D02*
X10225000Y-6225000D01*
X10175000Y-6175000D02*
X10275000Y-6175000D01*
X10225000Y-6875000D02*
X10225000Y-6975000D01*
X10175000Y-6925000D02*
X10275000Y-6925000D01*
D13*
X6788891Y-9838891D02*
X6788891Y-9761109D01*
X6711109Y-9761109D01*
X6711109Y-9838891D01*
X6788891Y-9838891D01*
X6788891Y-10288891D02*
X6788891Y-10211109D01*
X6711109Y-10211109D01*
X6711109Y-10288891D01*
X6788891Y-10288891D01*
X7438891Y-9838891D02*
X7438891Y-9761109D01*
X7361109Y-9761109D01*
X7361109Y-9838891D01*
X7438891Y-9838891D01*
X7438891Y-10288891D02*
X7438891Y-10211109D01*
X7361109Y-10211109D01*
X7361109Y-10288891D01*
X7438891Y-10288891D01*
X9213891Y-9863891D02*
X9213891Y-9786109D01*
X9136109Y-9786109D01*
X9136109Y-9863891D01*
X9213891Y-9863891D01*
X9213891Y-10313891D02*
X9213891Y-10236109D01*
X9136109Y-10236109D01*
X9136109Y-10313891D01*
X9213891Y-10313891D01*
X9863891Y-9863891D02*
X9863891Y-9786109D01*
X9786109Y-9786109D01*
X9786109Y-9863891D01*
X9863891Y-9863891D01*
X9863891Y-10313891D02*
X9863891Y-10236109D01*
X9786109Y-10236109D01*
X9786109Y-10313891D01*
X9863891Y-10313891D01*
D14*
X5500000Y-10475000D02*
X5675000Y-10300000D01*
X5500000Y-10125000D01*
X5325000Y-10300000D01*
X5500000Y-10475000D01*
X5520000Y-5075000D02*
X5695000Y-4900000D01*
X5520000Y-4725000D01*
X5345000Y-4900000D01*
X5520000Y-5075000D01*
X10800000Y-5075000D02*
X10975000Y-4900000D01*
X10800000Y-4725000D01*
X10625000Y-4900000D01*
X10800000Y-5075000D01*
X10800000Y-10475000D02*
X10975000Y-10300000D01*
X10800000Y-10125000D01*
X10625000Y-10300000D01*
X10800000Y-10475000D01*
D11*
X5208277Y-11113984D02*
X5208277Y-10913984D01*
X5208277Y-10913984D02*
X5255896Y-10913984D01*
X5255896Y-10913984D02*
X5284467Y-10923508D01*
X5284467Y-10923508D02*
X5303515Y-10942555D01*
X5303515Y-10942555D02*
X5313039Y-10961603D01*
X5313039Y-10961603D02*
X5322563Y-10999698D01*
X5322563Y-10999698D02*
X5322563Y-11028270D01*
X5322563Y-11028270D02*
X5313039Y-11066365D01*
X5313039Y-11066365D02*
X5303515Y-11085412D01*
X5303515Y-11085412D02*
X5284467Y-11104460D01*
X5284467Y-11104460D02*
X5255896Y-11113984D01*
X5255896Y-11113984D02*
X5208277Y-11113984D01*
X5408277Y-11113984D02*
X5408277Y-10980650D01*
X5408277Y-11018746D02*
X5417801Y-10999698D01*
X5417801Y-10999698D02*
X5427324Y-10990174D01*
X5427324Y-10990174D02*
X5446372Y-10980650D01*
X5446372Y-10980650D02*
X5465420Y-10980650D01*
X5532086Y-11113984D02*
X5532086Y-10980650D01*
X5532086Y-10913984D02*
X5522563Y-10923508D01*
X5522563Y-10923508D02*
X5532086Y-10933031D01*
X5532086Y-10933031D02*
X5541610Y-10923508D01*
X5541610Y-10923508D02*
X5532086Y-10913984D01*
X5532086Y-10913984D02*
X5532086Y-10933031D01*
X5655896Y-11113984D02*
X5636848Y-11104460D01*
X5636848Y-11104460D02*
X5627324Y-11085412D01*
X5627324Y-11085412D02*
X5627324Y-10913984D01*
X5760658Y-11113984D02*
X5741610Y-11104460D01*
X5741610Y-11104460D02*
X5732086Y-11085412D01*
X5732086Y-11085412D02*
X5732086Y-10913984D01*
X5989229Y-11113984D02*
X5989229Y-10913984D01*
X5989229Y-10913984D02*
X6055896Y-11056841D01*
X6055896Y-11056841D02*
X6122562Y-10913984D01*
X6122562Y-10913984D02*
X6122562Y-11113984D01*
X6303515Y-11113984D02*
X6303515Y-11009222D01*
X6303515Y-11009222D02*
X6293991Y-10990174D01*
X6293991Y-10990174D02*
X6274943Y-10980650D01*
X6274943Y-10980650D02*
X6236848Y-10980650D01*
X6236848Y-10980650D02*
X6217801Y-10990174D01*
X6303515Y-11104460D02*
X6284467Y-11113984D01*
X6284467Y-11113984D02*
X6236848Y-11113984D01*
X6236848Y-11113984D02*
X6217801Y-11104460D01*
X6217801Y-11104460D02*
X6208277Y-11085412D01*
X6208277Y-11085412D02*
X6208277Y-11066365D01*
X6208277Y-11066365D02*
X6217801Y-11047317D01*
X6217801Y-11047317D02*
X6236848Y-11037793D01*
X6236848Y-11037793D02*
X6284467Y-11037793D01*
X6284467Y-11037793D02*
X6303515Y-11028270D01*
X6398753Y-10980650D02*
X6398753Y-11180650D01*
X6398753Y-10990174D02*
X6417801Y-10980650D01*
X6417801Y-10980650D02*
X6455896Y-10980650D01*
X6455896Y-10980650D02*
X6474943Y-10990174D01*
X6474943Y-10990174D02*
X6484467Y-10999698D01*
X6484467Y-10999698D02*
X6493991Y-11018746D01*
X6493991Y-11018746D02*
X6493991Y-11075889D01*
X6493991Y-11075889D02*
X6484467Y-11094936D01*
X6484467Y-11094936D02*
X6474943Y-11104460D01*
X6474943Y-11104460D02*
X6455896Y-11113984D01*
X6455896Y-11113984D02*
X6417801Y-11113984D01*
X6417801Y-11113984D02*
X6398753Y-11104460D01*
X6579705Y-11094936D02*
X6589229Y-11104460D01*
X6589229Y-11104460D02*
X6579705Y-11113984D01*
X6579705Y-11113984D02*
X6570182Y-11104460D01*
X6570182Y-11104460D02*
X6579705Y-11094936D01*
X6579705Y-11094936D02*
X6579705Y-11113984D01*
X6579705Y-10990174D02*
X6589229Y-10999698D01*
X6589229Y-10999698D02*
X6579705Y-11009222D01*
X6579705Y-11009222D02*
X6570182Y-10999698D01*
X6570182Y-10999698D02*
X6579705Y-10990174D01*
X6579705Y-10990174D02*
X6579705Y-11009222D01*
D12*
X4857500Y-11397500D02*
X4947500Y-11487500D01*
X4947500Y-11397500D02*
X4857500Y-11487500D01*
D11*
X5246372Y-11333984D02*
X5265420Y-11333984D01*
X5265420Y-11333984D02*
X5284467Y-11343508D01*
X5284467Y-11343508D02*
X5293991Y-11353031D01*
X5293991Y-11353031D02*
X5303515Y-11372079D01*
X5303515Y-11372079D02*
X5313039Y-11410174D01*
X5313039Y-11410174D02*
X5313039Y-11457793D01*
X5313039Y-11457793D02*
X5303515Y-11495888D01*
X5303515Y-11495888D02*
X5293991Y-11514936D01*
X5293991Y-11514936D02*
X5284467Y-11524460D01*
X5284467Y-11524460D02*
X5265420Y-11533984D01*
X5265420Y-11533984D02*
X5246372Y-11533984D01*
X5246372Y-11533984D02*
X5227324Y-11524460D01*
X5227324Y-11524460D02*
X5217801Y-11514936D01*
X5217801Y-11514936D02*
X5208277Y-11495888D01*
X5208277Y-11495888D02*
X5198753Y-11457793D01*
X5198753Y-11457793D02*
X5198753Y-11410174D01*
X5198753Y-11410174D02*
X5208277Y-11372079D01*
X5208277Y-11372079D02*
X5217801Y-11353031D01*
X5217801Y-11353031D02*
X5227324Y-11343508D01*
X5227324Y-11343508D02*
X5246372Y-11333984D01*
X5398753Y-11514936D02*
X5408277Y-11524460D01*
X5408277Y-11524460D02*
X5398753Y-11533984D01*
X5398753Y-11533984D02*
X5389229Y-11524460D01*
X5389229Y-11524460D02*
X5398753Y-11514936D01*
X5398753Y-11514936D02*
X5398753Y-11533984D01*
X5503515Y-11533984D02*
X5541610Y-11533984D01*
X5541610Y-11533984D02*
X5560658Y-11524460D01*
X5560658Y-11524460D02*
X5570182Y-11514936D01*
X5570182Y-11514936D02*
X5589229Y-11486365D01*
X5589229Y-11486365D02*
X5598753Y-11448269D01*
X5598753Y-11448269D02*
X5598753Y-11372079D01*
X5598753Y-11372079D02*
X5589229Y-11353031D01*
X5589229Y-11353031D02*
X5579705Y-11343508D01*
X5579705Y-11343508D02*
X5560658Y-11333984D01*
X5560658Y-11333984D02*
X5522563Y-11333984D01*
X5522563Y-11333984D02*
X5503515Y-11343508D01*
X5503515Y-11343508D02*
X5493991Y-11353031D01*
X5493991Y-11353031D02*
X5484467Y-11372079D01*
X5484467Y-11372079D02*
X5484467Y-11419698D01*
X5484467Y-11419698D02*
X5493991Y-11438746D01*
X5493991Y-11438746D02*
X5503515Y-11448269D01*
X5503515Y-11448269D02*
X5522563Y-11457793D01*
X5522563Y-11457793D02*
X5560658Y-11457793D01*
X5560658Y-11457793D02*
X5579705Y-11448269D01*
X5579705Y-11448269D02*
X5589229Y-11438746D01*
X5589229Y-11438746D02*
X5598753Y-11419698D01*
X5722562Y-11333984D02*
X5741610Y-11333984D01*
X5741610Y-11333984D02*
X5760658Y-11343508D01*
X5760658Y-11343508D02*
X5770182Y-11353031D01*
X5770182Y-11353031D02*
X5779705Y-11372079D01*
X5779705Y-11372079D02*
X5789229Y-11410174D01*
X5789229Y-11410174D02*
X5789229Y-11457793D01*
X5789229Y-11457793D02*
X5779705Y-11495888D01*
X5779705Y-11495888D02*
X5770182Y-11514936D01*
X5770182Y-11514936D02*
X5760658Y-11524460D01*
X5760658Y-11524460D02*
X5741610Y-11533984D01*
X5741610Y-11533984D02*
X5722562Y-11533984D01*
X5722562Y-11533984D02*
X5703515Y-11524460D01*
X5703515Y-11524460D02*
X5693991Y-11514936D01*
X5693991Y-11514936D02*
X5684467Y-11495888D01*
X5684467Y-11495888D02*
X5674943Y-11457793D01*
X5674943Y-11457793D02*
X5674943Y-11410174D01*
X5674943Y-11410174D02*
X5684467Y-11372079D01*
X5684467Y-11372079D02*
X5693991Y-11353031D01*
X5693991Y-11353031D02*
X5703515Y-11343508D01*
X5703515Y-11343508D02*
X5722562Y-11333984D01*
X5913039Y-11333984D02*
X5932086Y-11333984D01*
X5932086Y-11333984D02*
X5951134Y-11343508D01*
X5951134Y-11343508D02*
X5960658Y-11353031D01*
X5960658Y-11353031D02*
X5970182Y-11372079D01*
X5970182Y-11372079D02*
X5979705Y-11410174D01*
X5979705Y-11410174D02*
X5979705Y-11457793D01*
X5979705Y-11457793D02*
X5970182Y-11495888D01*
X5970182Y-11495888D02*
X5960658Y-11514936D01*
X5960658Y-11514936D02*
X5951134Y-11524460D01*
X5951134Y-11524460D02*
X5932086Y-11533984D01*
X5932086Y-11533984D02*
X5913039Y-11533984D01*
X5913039Y-11533984D02*
X5893991Y-11524460D01*
X5893991Y-11524460D02*
X5884467Y-11514936D01*
X5884467Y-11514936D02*
X5874943Y-11495888D01*
X5874943Y-11495888D02*
X5865420Y-11457793D01*
X5865420Y-11457793D02*
X5865420Y-11410174D01*
X5865420Y-11410174D02*
X5874943Y-11372079D01*
X5874943Y-11372079D02*
X5884467Y-11353031D01*
X5884467Y-11353031D02*
X5893991Y-11343508D01*
X5893991Y-11343508D02*
X5913039Y-11333984D01*
X6065420Y-11533984D02*
X6065420Y-11400650D01*
X6065420Y-11419698D02*
X6074943Y-11410174D01*
X6074943Y-11410174D02*
X6093991Y-11400650D01*
X6093991Y-11400650D02*
X6122563Y-11400650D01*
X6122563Y-11400650D02*
X6141610Y-11410174D01*
X6141610Y-11410174D02*
X6151134Y-11429222D01*
X6151134Y-11429222D02*
X6151134Y-11533984D01*
X6151134Y-11429222D02*
X6160658Y-11410174D01*
X6160658Y-11410174D02*
X6179705Y-11400650D01*
X6179705Y-11400650D02*
X6208277Y-11400650D01*
X6208277Y-11400650D02*
X6227324Y-11410174D01*
X6227324Y-11410174D02*
X6236848Y-11429222D01*
X6236848Y-11429222D02*
X6236848Y-11533984D01*
X6332086Y-11533984D02*
X6332086Y-11400650D01*
X6332086Y-11419698D02*
X6341610Y-11410174D01*
X6341610Y-11410174D02*
X6360658Y-11400650D01*
X6360658Y-11400650D02*
X6389229Y-11400650D01*
X6389229Y-11400650D02*
X6408277Y-11410174D01*
X6408277Y-11410174D02*
X6417801Y-11429222D01*
X6417801Y-11429222D02*
X6417801Y-11533984D01*
X6417801Y-11429222D02*
X6427324Y-11410174D01*
X6427324Y-11410174D02*
X6446372Y-11400650D01*
X6446372Y-11400650D02*
X6474943Y-11400650D01*
X6474943Y-11400650D02*
X6493991Y-11410174D01*
X6493991Y-11410174D02*
X6503515Y-11429222D01*
X6503515Y-11429222D02*
X6503515Y-11533984D01*
X6893991Y-11324460D02*
X6722563Y-11581603D01*
X7151134Y-11333984D02*
X7170182Y-11333984D01*
X7170182Y-11333984D02*
X7189229Y-11343508D01*
X7189229Y-11343508D02*
X7198753Y-11353031D01*
X7198753Y-11353031D02*
X7208277Y-11372079D01*
X7208277Y-11372079D02*
X7217801Y-11410174D01*
X7217801Y-11410174D02*
X7217801Y-11457793D01*
X7217801Y-11457793D02*
X7208277Y-11495888D01*
X7208277Y-11495888D02*
X7198753Y-11514936D01*
X7198753Y-11514936D02*
X7189229Y-11524460D01*
X7189229Y-11524460D02*
X7170182Y-11533984D01*
X7170182Y-11533984D02*
X7151134Y-11533984D01*
X7151134Y-11533984D02*
X7132086Y-11524460D01*
X7132086Y-11524460D02*
X7122563Y-11514936D01*
X7122563Y-11514936D02*
X7113039Y-11495888D01*
X7113039Y-11495888D02*
X7103515Y-11457793D01*
X7103515Y-11457793D02*
X7103515Y-11410174D01*
X7103515Y-11410174D02*
X7113039Y-11372079D01*
X7113039Y-11372079D02*
X7122563Y-11353031D01*
X7122563Y-11353031D02*
X7132086Y-11343508D01*
X7132086Y-11343508D02*
X7151134Y-11333984D01*
X7303515Y-11514936D02*
X7313039Y-11524460D01*
X7313039Y-11524460D02*
X7303515Y-11533984D01*
X7303515Y-11533984D02*
X7293991Y-11524460D01*
X7293991Y-11524460D02*
X7303515Y-11514936D01*
X7303515Y-11514936D02*
X7303515Y-11533984D01*
X7436848Y-11333984D02*
X7455896Y-11333984D01*
X7455896Y-11333984D02*
X7474944Y-11343508D01*
X7474944Y-11343508D02*
X7484467Y-11353031D01*
X7484467Y-11353031D02*
X7493991Y-11372079D01*
X7493991Y-11372079D02*
X7503515Y-11410174D01*
X7503515Y-11410174D02*
X7503515Y-11457793D01*
X7503515Y-11457793D02*
X7493991Y-11495888D01*
X7493991Y-11495888D02*
X7484467Y-11514936D01*
X7484467Y-11514936D02*
X7474944Y-11524460D01*
X7474944Y-11524460D02*
X7455896Y-11533984D01*
X7455896Y-11533984D02*
X7436848Y-11533984D01*
X7436848Y-11533984D02*
X7417801Y-11524460D01*
X7417801Y-11524460D02*
X7408277Y-11514936D01*
X7408277Y-11514936D02*
X7398753Y-11495888D01*
X7398753Y-11495888D02*
X7389229Y-11457793D01*
X7389229Y-11457793D02*
X7389229Y-11410174D01*
X7389229Y-11410174D02*
X7398753Y-11372079D01*
X7398753Y-11372079D02*
X7408277Y-11353031D01*
X7408277Y-11353031D02*
X7417801Y-11343508D01*
X7417801Y-11343508D02*
X7436848Y-11333984D01*
X7570182Y-11333984D02*
X7693991Y-11333984D01*
X7693991Y-11333984D02*
X7627325Y-11410174D01*
X7627325Y-11410174D02*
X7655896Y-11410174D01*
X7655896Y-11410174D02*
X7674944Y-11419698D01*
X7674944Y-11419698D02*
X7684467Y-11429222D01*
X7684467Y-11429222D02*
X7693991Y-11448269D01*
X7693991Y-11448269D02*
X7693991Y-11495888D01*
X7693991Y-11495888D02*
X7684467Y-11514936D01*
X7684467Y-11514936D02*
X7674944Y-11524460D01*
X7674944Y-11524460D02*
X7655896Y-11533984D01*
X7655896Y-11533984D02*
X7598753Y-11533984D01*
X7598753Y-11533984D02*
X7579706Y-11524460D01*
X7579706Y-11524460D02*
X7570182Y-11514936D01*
X7874944Y-11333984D02*
X7779706Y-11333984D01*
X7779706Y-11333984D02*
X7770182Y-11429222D01*
X7770182Y-11429222D02*
X7779706Y-11419698D01*
X7779706Y-11419698D02*
X7798753Y-11410174D01*
X7798753Y-11410174D02*
X7846372Y-11410174D01*
X7846372Y-11410174D02*
X7865420Y-11419698D01*
X7865420Y-11419698D02*
X7874944Y-11429222D01*
X7874944Y-11429222D02*
X7884467Y-11448269D01*
X7884467Y-11448269D02*
X7884467Y-11495888D01*
X7884467Y-11495888D02*
X7874944Y-11514936D01*
X7874944Y-11514936D02*
X7865420Y-11524460D01*
X7865420Y-11524460D02*
X7846372Y-11533984D01*
X7846372Y-11533984D02*
X7798753Y-11533984D01*
X7798753Y-11533984D02*
X7779706Y-11524460D01*
X7779706Y-11524460D02*
X7770182Y-11514936D01*
X8055896Y-11400650D02*
X8055896Y-11533984D01*
X8008277Y-11324460D02*
X7960658Y-11467317D01*
X7960658Y-11467317D02*
X8084467Y-11467317D01*
X8151134Y-11333984D02*
X8151134Y-11372079D01*
X8227325Y-11333984D02*
X8227325Y-11372079D01*
X8522563Y-11610174D02*
X8513039Y-11600650D01*
X8513039Y-11600650D02*
X8493991Y-11572079D01*
X8493991Y-11572079D02*
X8484468Y-11553031D01*
X8484468Y-11553031D02*
X8474944Y-11524460D01*
X8474944Y-11524460D02*
X8465420Y-11476841D01*
X8465420Y-11476841D02*
X8465420Y-11438746D01*
X8465420Y-11438746D02*
X8474944Y-11391127D01*
X8474944Y-11391127D02*
X8484468Y-11362555D01*
X8484468Y-11362555D02*
X8493991Y-11343508D01*
X8493991Y-11343508D02*
X8513039Y-11314936D01*
X8513039Y-11314936D02*
X8522563Y-11305412D01*
X8589230Y-11353031D02*
X8598753Y-11343508D01*
X8598753Y-11343508D02*
X8617801Y-11333984D01*
X8617801Y-11333984D02*
X8665420Y-11333984D01*
X8665420Y-11333984D02*
X8684468Y-11343508D01*
X8684468Y-11343508D02*
X8693991Y-11353031D01*
X8693991Y-11353031D02*
X8703515Y-11372079D01*
X8703515Y-11372079D02*
X8703515Y-11391127D01*
X8703515Y-11391127D02*
X8693991Y-11419698D01*
X8693991Y-11419698D02*
X8579706Y-11533984D01*
X8579706Y-11533984D02*
X8703515Y-11533984D01*
X8884468Y-11333984D02*
X8789230Y-11333984D01*
X8789230Y-11333984D02*
X8779706Y-11429222D01*
X8779706Y-11429222D02*
X8789230Y-11419698D01*
X8789230Y-11419698D02*
X8808277Y-11410174D01*
X8808277Y-11410174D02*
X8855896Y-11410174D01*
X8855896Y-11410174D02*
X8874944Y-11419698D01*
X8874944Y-11419698D02*
X8884468Y-11429222D01*
X8884468Y-11429222D02*
X8893991Y-11448269D01*
X8893991Y-11448269D02*
X8893991Y-11495888D01*
X8893991Y-11495888D02*
X8884468Y-11514936D01*
X8884468Y-11514936D02*
X8874944Y-11524460D01*
X8874944Y-11524460D02*
X8855896Y-11533984D01*
X8855896Y-11533984D02*
X8808277Y-11533984D01*
X8808277Y-11533984D02*
X8789230Y-11524460D01*
X8789230Y-11524460D02*
X8779706Y-11514936D01*
X9132087Y-11533984D02*
X9132087Y-11333984D01*
X9217801Y-11533984D02*
X9217801Y-11429222D01*
X9217801Y-11429222D02*
X9208277Y-11410174D01*
X9208277Y-11410174D02*
X9189230Y-11400650D01*
X9189230Y-11400650D02*
X9160658Y-11400650D01*
X9160658Y-11400650D02*
X9141611Y-11410174D01*
X9141611Y-11410174D02*
X9132087Y-11419698D01*
X9341611Y-11533984D02*
X9322563Y-11524460D01*
X9322563Y-11524460D02*
X9313039Y-11514936D01*
X9313039Y-11514936D02*
X9303515Y-11495888D01*
X9303515Y-11495888D02*
X9303515Y-11438746D01*
X9303515Y-11438746D02*
X9313039Y-11419698D01*
X9313039Y-11419698D02*
X9322563Y-11410174D01*
X9322563Y-11410174D02*
X9341611Y-11400650D01*
X9341611Y-11400650D02*
X9370182Y-11400650D01*
X9370182Y-11400650D02*
X9389230Y-11410174D01*
X9389230Y-11410174D02*
X9398753Y-11419698D01*
X9398753Y-11419698D02*
X9408277Y-11438746D01*
X9408277Y-11438746D02*
X9408277Y-11495888D01*
X9408277Y-11495888D02*
X9398753Y-11514936D01*
X9398753Y-11514936D02*
X9389230Y-11524460D01*
X9389230Y-11524460D02*
X9370182Y-11533984D01*
X9370182Y-11533984D02*
X9341611Y-11533984D01*
X9522563Y-11533984D02*
X9503515Y-11524460D01*
X9503515Y-11524460D02*
X9493992Y-11505412D01*
X9493992Y-11505412D02*
X9493992Y-11333984D01*
X9674944Y-11524460D02*
X9655896Y-11533984D01*
X9655896Y-11533984D02*
X9617801Y-11533984D01*
X9617801Y-11533984D02*
X9598753Y-11524460D01*
X9598753Y-11524460D02*
X9589230Y-11505412D01*
X9589230Y-11505412D02*
X9589230Y-11429222D01*
X9589230Y-11429222D02*
X9598753Y-11410174D01*
X9598753Y-11410174D02*
X9617801Y-11400650D01*
X9617801Y-11400650D02*
X9655896Y-11400650D01*
X9655896Y-11400650D02*
X9674944Y-11410174D01*
X9674944Y-11410174D02*
X9684468Y-11429222D01*
X9684468Y-11429222D02*
X9684468Y-11448269D01*
X9684468Y-11448269D02*
X9589230Y-11467317D01*
X9760658Y-11524460D02*
X9779706Y-11533984D01*
X9779706Y-11533984D02*
X9817801Y-11533984D01*
X9817801Y-11533984D02*
X9836849Y-11524460D01*
X9836849Y-11524460D02*
X9846373Y-11505412D01*
X9846373Y-11505412D02*
X9846373Y-11495888D01*
X9846373Y-11495888D02*
X9836849Y-11476841D01*
X9836849Y-11476841D02*
X9817801Y-11467317D01*
X9817801Y-11467317D02*
X9789230Y-11467317D01*
X9789230Y-11467317D02*
X9770182Y-11457793D01*
X9770182Y-11457793D02*
X9760658Y-11438746D01*
X9760658Y-11438746D02*
X9760658Y-11429222D01*
X9760658Y-11429222D02*
X9770182Y-11410174D01*
X9770182Y-11410174D02*
X9789230Y-11400650D01*
X9789230Y-11400650D02*
X9817801Y-11400650D01*
X9817801Y-11400650D02*
X9836849Y-11410174D01*
X9913039Y-11610174D02*
X9922563Y-11600650D01*
X9922563Y-11600650D02*
X9941611Y-11572079D01*
X9941611Y-11572079D02*
X9951134Y-11553031D01*
X9951134Y-11553031D02*
X9960658Y-11524460D01*
X9960658Y-11524460D02*
X9970182Y-11476841D01*
X9970182Y-11476841D02*
X9970182Y-11438746D01*
X9970182Y-11438746D02*
X9960658Y-11391127D01*
X9960658Y-11391127D02*
X9951134Y-11362555D01*
X9951134Y-11362555D02*
X9941611Y-11343508D01*
X9941611Y-11343508D02*
X9922563Y-11314936D01*
X9922563Y-11314936D02*
X9913039Y-11305412D01*
D12*
X4947500Y-11706500D02*
G75*
G02*
X4852500Y-11706500I-47500J0D01*
G01*
X4852500Y-11706500D02*
G75*
G02*
X4947500Y-11706500I47500J0D01*
G01*
D11*
X5246372Y-11597984D02*
X5265420Y-11597984D01*
X5265420Y-11597984D02*
X5284467Y-11607508D01*
X5284467Y-11607508D02*
X5293991Y-11617031D01*
X5293991Y-11617031D02*
X5303515Y-11636079D01*
X5303515Y-11636079D02*
X5313039Y-11674174D01*
X5313039Y-11674174D02*
X5313039Y-11721793D01*
X5313039Y-11721793D02*
X5303515Y-11759888D01*
X5303515Y-11759888D02*
X5293991Y-11778936D01*
X5293991Y-11778936D02*
X5284467Y-11788460D01*
X5284467Y-11788460D02*
X5265420Y-11797984D01*
X5265420Y-11797984D02*
X5246372Y-11797984D01*
X5246372Y-11797984D02*
X5227324Y-11788460D01*
X5227324Y-11788460D02*
X5217801Y-11778936D01*
X5217801Y-11778936D02*
X5208277Y-11759888D01*
X5208277Y-11759888D02*
X5198753Y-11721793D01*
X5198753Y-11721793D02*
X5198753Y-11674174D01*
X5198753Y-11674174D02*
X5208277Y-11636079D01*
X5208277Y-11636079D02*
X5217801Y-11617031D01*
X5217801Y-11617031D02*
X5227324Y-11607508D01*
X5227324Y-11607508D02*
X5246372Y-11597984D01*
X5398753Y-11778936D02*
X5408277Y-11788460D01*
X5408277Y-11788460D02*
X5398753Y-11797984D01*
X5398753Y-11797984D02*
X5389229Y-11788460D01*
X5389229Y-11788460D02*
X5398753Y-11778936D01*
X5398753Y-11778936D02*
X5398753Y-11797984D01*
X5503515Y-11797984D02*
X5541610Y-11797984D01*
X5541610Y-11797984D02*
X5560658Y-11788460D01*
X5560658Y-11788460D02*
X5570182Y-11778936D01*
X5570182Y-11778936D02*
X5589229Y-11750365D01*
X5589229Y-11750365D02*
X5598753Y-11712269D01*
X5598753Y-11712269D02*
X5598753Y-11636079D01*
X5598753Y-11636079D02*
X5589229Y-11617031D01*
X5589229Y-11617031D02*
X5579705Y-11607508D01*
X5579705Y-11607508D02*
X5560658Y-11597984D01*
X5560658Y-11597984D02*
X5522563Y-11597984D01*
X5522563Y-11597984D02*
X5503515Y-11607508D01*
X5503515Y-11607508D02*
X5493991Y-11617031D01*
X5493991Y-11617031D02*
X5484467Y-11636079D01*
X5484467Y-11636079D02*
X5484467Y-11683698D01*
X5484467Y-11683698D02*
X5493991Y-11702746D01*
X5493991Y-11702746D02*
X5503515Y-11712269D01*
X5503515Y-11712269D02*
X5522563Y-11721793D01*
X5522563Y-11721793D02*
X5560658Y-11721793D01*
X5560658Y-11721793D02*
X5579705Y-11712269D01*
X5579705Y-11712269D02*
X5589229Y-11702746D01*
X5589229Y-11702746D02*
X5598753Y-11683698D01*
X5779705Y-11597984D02*
X5684467Y-11597984D01*
X5684467Y-11597984D02*
X5674943Y-11693222D01*
X5674943Y-11693222D02*
X5684467Y-11683698D01*
X5684467Y-11683698D02*
X5703515Y-11674174D01*
X5703515Y-11674174D02*
X5751134Y-11674174D01*
X5751134Y-11674174D02*
X5770182Y-11683698D01*
X5770182Y-11683698D02*
X5779705Y-11693222D01*
X5779705Y-11693222D02*
X5789229Y-11712269D01*
X5789229Y-11712269D02*
X5789229Y-11759888D01*
X5789229Y-11759888D02*
X5779705Y-11778936D01*
X5779705Y-11778936D02*
X5770182Y-11788460D01*
X5770182Y-11788460D02*
X5751134Y-11797984D01*
X5751134Y-11797984D02*
X5703515Y-11797984D01*
X5703515Y-11797984D02*
X5684467Y-11788460D01*
X5684467Y-11788460D02*
X5674943Y-11778936D01*
X5913039Y-11597984D02*
X5932086Y-11597984D01*
X5932086Y-11597984D02*
X5951134Y-11607508D01*
X5951134Y-11607508D02*
X5960658Y-11617031D01*
X5960658Y-11617031D02*
X5970182Y-11636079D01*
X5970182Y-11636079D02*
X5979705Y-11674174D01*
X5979705Y-11674174D02*
X5979705Y-11721793D01*
X5979705Y-11721793D02*
X5970182Y-11759888D01*
X5970182Y-11759888D02*
X5960658Y-11778936D01*
X5960658Y-11778936D02*
X5951134Y-11788460D01*
X5951134Y-11788460D02*
X5932086Y-11797984D01*
X5932086Y-11797984D02*
X5913039Y-11797984D01*
X5913039Y-11797984D02*
X5893991Y-11788460D01*
X5893991Y-11788460D02*
X5884467Y-11778936D01*
X5884467Y-11778936D02*
X5874943Y-11759888D01*
X5874943Y-11759888D02*
X5865420Y-11721793D01*
X5865420Y-11721793D02*
X5865420Y-11674174D01*
X5865420Y-11674174D02*
X5874943Y-11636079D01*
X5874943Y-11636079D02*
X5884467Y-11617031D01*
X5884467Y-11617031D02*
X5893991Y-11607508D01*
X5893991Y-11607508D02*
X5913039Y-11597984D01*
X6065420Y-11797984D02*
X6065420Y-11664650D01*
X6065420Y-11683698D02*
X6074943Y-11674174D01*
X6074943Y-11674174D02*
X6093991Y-11664650D01*
X6093991Y-11664650D02*
X6122563Y-11664650D01*
X6122563Y-11664650D02*
X6141610Y-11674174D01*
X6141610Y-11674174D02*
X6151134Y-11693222D01*
X6151134Y-11693222D02*
X6151134Y-11797984D01*
X6151134Y-11693222D02*
X6160658Y-11674174D01*
X6160658Y-11674174D02*
X6179705Y-11664650D01*
X6179705Y-11664650D02*
X6208277Y-11664650D01*
X6208277Y-11664650D02*
X6227324Y-11674174D01*
X6227324Y-11674174D02*
X6236848Y-11693222D01*
X6236848Y-11693222D02*
X6236848Y-11797984D01*
X6332086Y-11797984D02*
X6332086Y-11664650D01*
X6332086Y-11683698D02*
X6341610Y-11674174D01*
X6341610Y-11674174D02*
X6360658Y-11664650D01*
X6360658Y-11664650D02*
X6389229Y-11664650D01*
X6389229Y-11664650D02*
X6408277Y-11674174D01*
X6408277Y-11674174D02*
X6417801Y-11693222D01*
X6417801Y-11693222D02*
X6417801Y-11797984D01*
X6417801Y-11693222D02*
X6427324Y-11674174D01*
X6427324Y-11674174D02*
X6446372Y-11664650D01*
X6446372Y-11664650D02*
X6474943Y-11664650D01*
X6474943Y-11664650D02*
X6493991Y-11674174D01*
X6493991Y-11674174D02*
X6503515Y-11693222D01*
X6503515Y-11693222D02*
X6503515Y-11797984D01*
X6893991Y-11588460D02*
X6722563Y-11845603D01*
X7151134Y-11597984D02*
X7170182Y-11597984D01*
X7170182Y-11597984D02*
X7189229Y-11607508D01*
X7189229Y-11607508D02*
X7198753Y-11617031D01*
X7198753Y-11617031D02*
X7208277Y-11636079D01*
X7208277Y-11636079D02*
X7217801Y-11674174D01*
X7217801Y-11674174D02*
X7217801Y-11721793D01*
X7217801Y-11721793D02*
X7208277Y-11759888D01*
X7208277Y-11759888D02*
X7198753Y-11778936D01*
X7198753Y-11778936D02*
X7189229Y-11788460D01*
X7189229Y-11788460D02*
X7170182Y-11797984D01*
X7170182Y-11797984D02*
X7151134Y-11797984D01*
X7151134Y-11797984D02*
X7132086Y-11788460D01*
X7132086Y-11788460D02*
X7122563Y-11778936D01*
X7122563Y-11778936D02*
X7113039Y-11759888D01*
X7113039Y-11759888D02*
X7103515Y-11721793D01*
X7103515Y-11721793D02*
X7103515Y-11674174D01*
X7103515Y-11674174D02*
X7113039Y-11636079D01*
X7113039Y-11636079D02*
X7122563Y-11617031D01*
X7122563Y-11617031D02*
X7132086Y-11607508D01*
X7132086Y-11607508D02*
X7151134Y-11597984D01*
X7303515Y-11778936D02*
X7313039Y-11788460D01*
X7313039Y-11788460D02*
X7303515Y-11797984D01*
X7303515Y-11797984D02*
X7293991Y-11788460D01*
X7293991Y-11788460D02*
X7303515Y-11778936D01*
X7303515Y-11778936D02*
X7303515Y-11797984D01*
X7436848Y-11597984D02*
X7455896Y-11597984D01*
X7455896Y-11597984D02*
X7474944Y-11607508D01*
X7474944Y-11607508D02*
X7484467Y-11617031D01*
X7484467Y-11617031D02*
X7493991Y-11636079D01*
X7493991Y-11636079D02*
X7503515Y-11674174D01*
X7503515Y-11674174D02*
X7503515Y-11721793D01*
X7503515Y-11721793D02*
X7493991Y-11759888D01*
X7493991Y-11759888D02*
X7484467Y-11778936D01*
X7484467Y-11778936D02*
X7474944Y-11788460D01*
X7474944Y-11788460D02*
X7455896Y-11797984D01*
X7455896Y-11797984D02*
X7436848Y-11797984D01*
X7436848Y-11797984D02*
X7417801Y-11788460D01*
X7417801Y-11788460D02*
X7408277Y-11778936D01*
X7408277Y-11778936D02*
X7398753Y-11759888D01*
X7398753Y-11759888D02*
X7389229Y-11721793D01*
X7389229Y-11721793D02*
X7389229Y-11674174D01*
X7389229Y-11674174D02*
X7398753Y-11636079D01*
X7398753Y-11636079D02*
X7408277Y-11617031D01*
X7408277Y-11617031D02*
X7417801Y-11607508D01*
X7417801Y-11607508D02*
X7436848Y-11597984D01*
X7570182Y-11597984D02*
X7693991Y-11597984D01*
X7693991Y-11597984D02*
X7627325Y-11674174D01*
X7627325Y-11674174D02*
X7655896Y-11674174D01*
X7655896Y-11674174D02*
X7674944Y-11683698D01*
X7674944Y-11683698D02*
X7684467Y-11693222D01*
X7684467Y-11693222D02*
X7693991Y-11712269D01*
X7693991Y-11712269D02*
X7693991Y-11759888D01*
X7693991Y-11759888D02*
X7684467Y-11778936D01*
X7684467Y-11778936D02*
X7674944Y-11788460D01*
X7674944Y-11788460D02*
X7655896Y-11797984D01*
X7655896Y-11797984D02*
X7598753Y-11797984D01*
X7598753Y-11797984D02*
X7579706Y-11788460D01*
X7579706Y-11788460D02*
X7570182Y-11778936D01*
X7760658Y-11597984D02*
X7893991Y-11597984D01*
X7893991Y-11597984D02*
X7808277Y-11797984D01*
X8055896Y-11664650D02*
X8055896Y-11797984D01*
X8008277Y-11588460D02*
X7960658Y-11731317D01*
X7960658Y-11731317D02*
X8084467Y-11731317D01*
X8151134Y-11597984D02*
X8151134Y-11636079D01*
X8227325Y-11597984D02*
X8227325Y-11636079D01*
X8522563Y-11874174D02*
X8513039Y-11864650D01*
X8513039Y-11864650D02*
X8493991Y-11836079D01*
X8493991Y-11836079D02*
X8484468Y-11817031D01*
X8484468Y-11817031D02*
X8474944Y-11788460D01*
X8474944Y-11788460D02*
X8465420Y-11740841D01*
X8465420Y-11740841D02*
X8465420Y-11702746D01*
X8465420Y-11702746D02*
X8474944Y-11655127D01*
X8474944Y-11655127D02*
X8484468Y-11626555D01*
X8484468Y-11626555D02*
X8493991Y-11607508D01*
X8493991Y-11607508D02*
X8513039Y-11578936D01*
X8513039Y-11578936D02*
X8522563Y-11569412D01*
X8703515Y-11797984D02*
X8589230Y-11797984D01*
X8646372Y-11797984D02*
X8646372Y-11597984D01*
X8646372Y-11597984D02*
X8627325Y-11626555D01*
X8627325Y-11626555D02*
X8608277Y-11645603D01*
X8608277Y-11645603D02*
X8589230Y-11655127D01*
X8874944Y-11597984D02*
X8836849Y-11597984D01*
X8836849Y-11597984D02*
X8817801Y-11607508D01*
X8817801Y-11607508D02*
X8808277Y-11617031D01*
X8808277Y-11617031D02*
X8789230Y-11645603D01*
X8789230Y-11645603D02*
X8779706Y-11683698D01*
X8779706Y-11683698D02*
X8779706Y-11759888D01*
X8779706Y-11759888D02*
X8789230Y-11778936D01*
X8789230Y-11778936D02*
X8798753Y-11788460D01*
X8798753Y-11788460D02*
X8817801Y-11797984D01*
X8817801Y-11797984D02*
X8855896Y-11797984D01*
X8855896Y-11797984D02*
X8874944Y-11788460D01*
X8874944Y-11788460D02*
X8884468Y-11778936D01*
X8884468Y-11778936D02*
X8893991Y-11759888D01*
X8893991Y-11759888D02*
X8893991Y-11712269D01*
X8893991Y-11712269D02*
X8884468Y-11693222D01*
X8884468Y-11693222D02*
X8874944Y-11683698D01*
X8874944Y-11683698D02*
X8855896Y-11674174D01*
X8855896Y-11674174D02*
X8817801Y-11674174D01*
X8817801Y-11674174D02*
X8798753Y-11683698D01*
X8798753Y-11683698D02*
X8789230Y-11693222D01*
X8789230Y-11693222D02*
X8779706Y-11712269D01*
X9132087Y-11797984D02*
X9132087Y-11597984D01*
X9217801Y-11797984D02*
X9217801Y-11693222D01*
X9217801Y-11693222D02*
X9208277Y-11674174D01*
X9208277Y-11674174D02*
X9189230Y-11664650D01*
X9189230Y-11664650D02*
X9160658Y-11664650D01*
X9160658Y-11664650D02*
X9141611Y-11674174D01*
X9141611Y-11674174D02*
X9132087Y-11683698D01*
X9341611Y-11797984D02*
X9322563Y-11788460D01*
X9322563Y-11788460D02*
X9313039Y-11778936D01*
X9313039Y-11778936D02*
X9303515Y-11759888D01*
X9303515Y-11759888D02*
X9303515Y-11702746D01*
X9303515Y-11702746D02*
X9313039Y-11683698D01*
X9313039Y-11683698D02*
X9322563Y-11674174D01*
X9322563Y-11674174D02*
X9341611Y-11664650D01*
X9341611Y-11664650D02*
X9370182Y-11664650D01*
X9370182Y-11664650D02*
X9389230Y-11674174D01*
X9389230Y-11674174D02*
X9398753Y-11683698D01*
X9398753Y-11683698D02*
X9408277Y-11702746D01*
X9408277Y-11702746D02*
X9408277Y-11759888D01*
X9408277Y-11759888D02*
X9398753Y-11778936D01*
X9398753Y-11778936D02*
X9389230Y-11788460D01*
X9389230Y-11788460D02*
X9370182Y-11797984D01*
X9370182Y-11797984D02*
X9341611Y-11797984D01*
X9522563Y-11797984D02*
X9503515Y-11788460D01*
X9503515Y-11788460D02*
X9493992Y-11769412D01*
X9493992Y-11769412D02*
X9493992Y-11597984D01*
X9674944Y-11788460D02*
X9655896Y-11797984D01*
X9655896Y-11797984D02*
X9617801Y-11797984D01*
X9617801Y-11797984D02*
X9598753Y-11788460D01*
X9598753Y-11788460D02*
X9589230Y-11769412D01*
X9589230Y-11769412D02*
X9589230Y-11693222D01*
X9589230Y-11693222D02*
X9598753Y-11674174D01*
X9598753Y-11674174D02*
X9617801Y-11664650D01*
X9617801Y-11664650D02*
X9655896Y-11664650D01*
X9655896Y-11664650D02*
X9674944Y-11674174D01*
X9674944Y-11674174D02*
X9684468Y-11693222D01*
X9684468Y-11693222D02*
X9684468Y-11712269D01*
X9684468Y-11712269D02*
X9589230Y-11731317D01*
X9760658Y-11788460D02*
X9779706Y-11797984D01*
X9779706Y-11797984D02*
X9817801Y-11797984D01*
X9817801Y-11797984D02*
X9836849Y-11788460D01*
X9836849Y-11788460D02*
X9846373Y-11769412D01*
X9846373Y-11769412D02*
X9846373Y-11759888D01*
X9846373Y-11759888D02*
X9836849Y-11740841D01*
X9836849Y-11740841D02*
X9817801Y-11731317D01*
X9817801Y-11731317D02*
X9789230Y-11731317D01*
X9789230Y-11731317D02*
X9770182Y-11721793D01*
X9770182Y-11721793D02*
X9760658Y-11702746D01*
X9760658Y-11702746D02*
X9760658Y-11693222D01*
X9760658Y-11693222D02*
X9770182Y-11674174D01*
X9770182Y-11674174D02*
X9789230Y-11664650D01*
X9789230Y-11664650D02*
X9817801Y-11664650D01*
X9817801Y-11664650D02*
X9836849Y-11674174D01*
X9913039Y-11874174D02*
X9922563Y-11864650D01*
X9922563Y-11864650D02*
X9941611Y-11836079D01*
X9941611Y-11836079D02*
X9951134Y-11817031D01*
X9951134Y-11817031D02*
X9960658Y-11788460D01*
X9960658Y-11788460D02*
X9970182Y-11740841D01*
X9970182Y-11740841D02*
X9970182Y-11702746D01*
X9970182Y-11702746D02*
X9960658Y-11655127D01*
X9960658Y-11655127D02*
X9951134Y-11626555D01*
X9951134Y-11626555D02*
X9941611Y-11607508D01*
X9941611Y-11607508D02*
X9922563Y-11578936D01*
X9922563Y-11578936D02*
X9913039Y-11569412D01*
D12*
X4897500Y-11920500D02*
X4897500Y-12020500D01*
X4847500Y-11970500D02*
X4947500Y-11970500D01*
D11*
X5313039Y-12061984D02*
X5198753Y-12061984D01*
X5255896Y-12061984D02*
X5255896Y-11861984D01*
X5255896Y-11861984D02*
X5236848Y-11890555D01*
X5236848Y-11890555D02*
X5217801Y-11909603D01*
X5217801Y-11909603D02*
X5198753Y-11919127D01*
X5398753Y-12042936D02*
X5408277Y-12052460D01*
X5408277Y-12052460D02*
X5398753Y-12061984D01*
X5398753Y-12061984D02*
X5389229Y-12052460D01*
X5389229Y-12052460D02*
X5398753Y-12042936D01*
X5398753Y-12042936D02*
X5398753Y-12061984D01*
X5532086Y-11861984D02*
X5551134Y-11861984D01*
X5551134Y-11861984D02*
X5570182Y-11871508D01*
X5570182Y-11871508D02*
X5579705Y-11881031D01*
X5579705Y-11881031D02*
X5589229Y-11900079D01*
X5589229Y-11900079D02*
X5598753Y-11938174D01*
X5598753Y-11938174D02*
X5598753Y-11985793D01*
X5598753Y-11985793D02*
X5589229Y-12023888D01*
X5589229Y-12023888D02*
X5579705Y-12042936D01*
X5579705Y-12042936D02*
X5570182Y-12052460D01*
X5570182Y-12052460D02*
X5551134Y-12061984D01*
X5551134Y-12061984D02*
X5532086Y-12061984D01*
X5532086Y-12061984D02*
X5513039Y-12052460D01*
X5513039Y-12052460D02*
X5503515Y-12042936D01*
X5503515Y-12042936D02*
X5493991Y-12023888D01*
X5493991Y-12023888D02*
X5484467Y-11985793D01*
X5484467Y-11985793D02*
X5484467Y-11938174D01*
X5484467Y-11938174D02*
X5493991Y-11900079D01*
X5493991Y-11900079D02*
X5503515Y-11881031D01*
X5503515Y-11881031D02*
X5513039Y-11871508D01*
X5513039Y-11871508D02*
X5532086Y-11861984D01*
X5722562Y-11861984D02*
X5741610Y-11861984D01*
X5741610Y-11861984D02*
X5760658Y-11871508D01*
X5760658Y-11871508D02*
X5770182Y-11881031D01*
X5770182Y-11881031D02*
X5779705Y-11900079D01*
X5779705Y-11900079D02*
X5789229Y-11938174D01*
X5789229Y-11938174D02*
X5789229Y-11985793D01*
X5789229Y-11985793D02*
X5779705Y-12023888D01*
X5779705Y-12023888D02*
X5770182Y-12042936D01*
X5770182Y-12042936D02*
X5760658Y-12052460D01*
X5760658Y-12052460D02*
X5741610Y-12061984D01*
X5741610Y-12061984D02*
X5722562Y-12061984D01*
X5722562Y-12061984D02*
X5703515Y-12052460D01*
X5703515Y-12052460D02*
X5693991Y-12042936D01*
X5693991Y-12042936D02*
X5684467Y-12023888D01*
X5684467Y-12023888D02*
X5674943Y-11985793D01*
X5674943Y-11985793D02*
X5674943Y-11938174D01*
X5674943Y-11938174D02*
X5684467Y-11900079D01*
X5684467Y-11900079D02*
X5693991Y-11881031D01*
X5693991Y-11881031D02*
X5703515Y-11871508D01*
X5703515Y-11871508D02*
X5722562Y-11861984D01*
X5913039Y-11861984D02*
X5932086Y-11861984D01*
X5932086Y-11861984D02*
X5951134Y-11871508D01*
X5951134Y-11871508D02*
X5960658Y-11881031D01*
X5960658Y-11881031D02*
X5970182Y-11900079D01*
X5970182Y-11900079D02*
X5979705Y-11938174D01*
X5979705Y-11938174D02*
X5979705Y-11985793D01*
X5979705Y-11985793D02*
X5970182Y-12023888D01*
X5970182Y-12023888D02*
X5960658Y-12042936D01*
X5960658Y-12042936D02*
X5951134Y-12052460D01*
X5951134Y-12052460D02*
X5932086Y-12061984D01*
X5932086Y-12061984D02*
X5913039Y-12061984D01*
X5913039Y-12061984D02*
X5893991Y-12052460D01*
X5893991Y-12052460D02*
X5884467Y-12042936D01*
X5884467Y-12042936D02*
X5874943Y-12023888D01*
X5874943Y-12023888D02*
X5865420Y-11985793D01*
X5865420Y-11985793D02*
X5865420Y-11938174D01*
X5865420Y-11938174D02*
X5874943Y-11900079D01*
X5874943Y-11900079D02*
X5884467Y-11881031D01*
X5884467Y-11881031D02*
X5893991Y-11871508D01*
X5893991Y-11871508D02*
X5913039Y-11861984D01*
X6065420Y-12061984D02*
X6065420Y-11928650D01*
X6065420Y-11947698D02*
X6074943Y-11938174D01*
X6074943Y-11938174D02*
X6093991Y-11928650D01*
X6093991Y-11928650D02*
X6122563Y-11928650D01*
X6122563Y-11928650D02*
X6141610Y-11938174D01*
X6141610Y-11938174D02*
X6151134Y-11957222D01*
X6151134Y-11957222D02*
X6151134Y-12061984D01*
X6151134Y-11957222D02*
X6160658Y-11938174D01*
X6160658Y-11938174D02*
X6179705Y-11928650D01*
X6179705Y-11928650D02*
X6208277Y-11928650D01*
X6208277Y-11928650D02*
X6227324Y-11938174D01*
X6227324Y-11938174D02*
X6236848Y-11957222D01*
X6236848Y-11957222D02*
X6236848Y-12061984D01*
X6332086Y-12061984D02*
X6332086Y-11928650D01*
X6332086Y-11947698D02*
X6341610Y-11938174D01*
X6341610Y-11938174D02*
X6360658Y-11928650D01*
X6360658Y-11928650D02*
X6389229Y-11928650D01*
X6389229Y-11928650D02*
X6408277Y-11938174D01*
X6408277Y-11938174D02*
X6417801Y-11957222D01*
X6417801Y-11957222D02*
X6417801Y-12061984D01*
X6417801Y-11957222D02*
X6427324Y-11938174D01*
X6427324Y-11938174D02*
X6446372Y-11928650D01*
X6446372Y-11928650D02*
X6474943Y-11928650D01*
X6474943Y-11928650D02*
X6493991Y-11938174D01*
X6493991Y-11938174D02*
X6503515Y-11957222D01*
X6503515Y-11957222D02*
X6503515Y-12061984D01*
X6893991Y-11852460D02*
X6722563Y-12109603D01*
X7151134Y-11861984D02*
X7170182Y-11861984D01*
X7170182Y-11861984D02*
X7189229Y-11871508D01*
X7189229Y-11871508D02*
X7198753Y-11881031D01*
X7198753Y-11881031D02*
X7208277Y-11900079D01*
X7208277Y-11900079D02*
X7217801Y-11938174D01*
X7217801Y-11938174D02*
X7217801Y-11985793D01*
X7217801Y-11985793D02*
X7208277Y-12023888D01*
X7208277Y-12023888D02*
X7198753Y-12042936D01*
X7198753Y-12042936D02*
X7189229Y-12052460D01*
X7189229Y-12052460D02*
X7170182Y-12061984D01*
X7170182Y-12061984D02*
X7151134Y-12061984D01*
X7151134Y-12061984D02*
X7132086Y-12052460D01*
X7132086Y-12052460D02*
X7122563Y-12042936D01*
X7122563Y-12042936D02*
X7113039Y-12023888D01*
X7113039Y-12023888D02*
X7103515Y-11985793D01*
X7103515Y-11985793D02*
X7103515Y-11938174D01*
X7103515Y-11938174D02*
X7113039Y-11900079D01*
X7113039Y-11900079D02*
X7122563Y-11881031D01*
X7122563Y-11881031D02*
X7132086Y-11871508D01*
X7132086Y-11871508D02*
X7151134Y-11861984D01*
X7303515Y-12042936D02*
X7313039Y-12052460D01*
X7313039Y-12052460D02*
X7303515Y-12061984D01*
X7303515Y-12061984D02*
X7293991Y-12052460D01*
X7293991Y-12052460D02*
X7303515Y-12042936D01*
X7303515Y-12042936D02*
X7303515Y-12061984D01*
X7436848Y-11861984D02*
X7455896Y-11861984D01*
X7455896Y-11861984D02*
X7474944Y-11871508D01*
X7474944Y-11871508D02*
X7484467Y-11881031D01*
X7484467Y-11881031D02*
X7493991Y-11900079D01*
X7493991Y-11900079D02*
X7503515Y-11938174D01*
X7503515Y-11938174D02*
X7503515Y-11985793D01*
X7503515Y-11985793D02*
X7493991Y-12023888D01*
X7493991Y-12023888D02*
X7484467Y-12042936D01*
X7484467Y-12042936D02*
X7474944Y-12052460D01*
X7474944Y-12052460D02*
X7455896Y-12061984D01*
X7455896Y-12061984D02*
X7436848Y-12061984D01*
X7436848Y-12061984D02*
X7417801Y-12052460D01*
X7417801Y-12052460D02*
X7408277Y-12042936D01*
X7408277Y-12042936D02*
X7398753Y-12023888D01*
X7398753Y-12023888D02*
X7389229Y-11985793D01*
X7389229Y-11985793D02*
X7389229Y-11938174D01*
X7389229Y-11938174D02*
X7398753Y-11900079D01*
X7398753Y-11900079D02*
X7408277Y-11881031D01*
X7408277Y-11881031D02*
X7417801Y-11871508D01*
X7417801Y-11871508D02*
X7436848Y-11861984D01*
X7570182Y-11861984D02*
X7693991Y-11861984D01*
X7693991Y-11861984D02*
X7627325Y-11938174D01*
X7627325Y-11938174D02*
X7655896Y-11938174D01*
X7655896Y-11938174D02*
X7674944Y-11947698D01*
X7674944Y-11947698D02*
X7684467Y-11957222D01*
X7684467Y-11957222D02*
X7693991Y-11976269D01*
X7693991Y-11976269D02*
X7693991Y-12023888D01*
X7693991Y-12023888D02*
X7684467Y-12042936D01*
X7684467Y-12042936D02*
X7674944Y-12052460D01*
X7674944Y-12052460D02*
X7655896Y-12061984D01*
X7655896Y-12061984D02*
X7598753Y-12061984D01*
X7598753Y-12061984D02*
X7579706Y-12052460D01*
X7579706Y-12052460D02*
X7570182Y-12042936D01*
X7789229Y-12061984D02*
X7827325Y-12061984D01*
X7827325Y-12061984D02*
X7846372Y-12052460D01*
X7846372Y-12052460D02*
X7855896Y-12042936D01*
X7855896Y-12042936D02*
X7874944Y-12014365D01*
X7874944Y-12014365D02*
X7884467Y-11976269D01*
X7884467Y-11976269D02*
X7884467Y-11900079D01*
X7884467Y-11900079D02*
X7874944Y-11881031D01*
X7874944Y-11881031D02*
X7865420Y-11871508D01*
X7865420Y-11871508D02*
X7846372Y-11861984D01*
X7846372Y-11861984D02*
X7808277Y-11861984D01*
X7808277Y-11861984D02*
X7789229Y-11871508D01*
X7789229Y-11871508D02*
X7779706Y-11881031D01*
X7779706Y-11881031D02*
X7770182Y-11900079D01*
X7770182Y-11900079D02*
X7770182Y-11947698D01*
X7770182Y-11947698D02*
X7779706Y-11966746D01*
X7779706Y-11966746D02*
X7789229Y-11976269D01*
X7789229Y-11976269D02*
X7808277Y-11985793D01*
X7808277Y-11985793D02*
X7846372Y-11985793D01*
X7846372Y-11985793D02*
X7865420Y-11976269D01*
X7865420Y-11976269D02*
X7874944Y-11966746D01*
X7874944Y-11966746D02*
X7884467Y-11947698D01*
X8055896Y-11928650D02*
X8055896Y-12061984D01*
X8008277Y-11852460D02*
X7960658Y-11995317D01*
X7960658Y-11995317D02*
X8084467Y-11995317D01*
X8151134Y-11861984D02*
X8151134Y-11900079D01*
X8227325Y-11861984D02*
X8227325Y-11900079D01*
X8522563Y-12138174D02*
X8513039Y-12128650D01*
X8513039Y-12128650D02*
X8493991Y-12100079D01*
X8493991Y-12100079D02*
X8484468Y-12081031D01*
X8484468Y-12081031D02*
X8474944Y-12052460D01*
X8474944Y-12052460D02*
X8465420Y-12004841D01*
X8465420Y-12004841D02*
X8465420Y-11966746D01*
X8465420Y-11966746D02*
X8474944Y-11919127D01*
X8474944Y-11919127D02*
X8484468Y-11890555D01*
X8484468Y-11890555D02*
X8493991Y-11871508D01*
X8493991Y-11871508D02*
X8513039Y-11842936D01*
X8513039Y-11842936D02*
X8522563Y-11833412D01*
X8684468Y-11928650D02*
X8684468Y-12061984D01*
X8636849Y-11852460D02*
X8589230Y-11995317D01*
X8589230Y-11995317D02*
X8713039Y-11995317D01*
X8779706Y-11881031D02*
X8789230Y-11871508D01*
X8789230Y-11871508D02*
X8808277Y-11861984D01*
X8808277Y-11861984D02*
X8855896Y-11861984D01*
X8855896Y-11861984D02*
X8874944Y-11871508D01*
X8874944Y-11871508D02*
X8884468Y-11881031D01*
X8884468Y-11881031D02*
X8893991Y-11900079D01*
X8893991Y-11900079D02*
X8893991Y-11919127D01*
X8893991Y-11919127D02*
X8884468Y-11947698D01*
X8884468Y-11947698D02*
X8770182Y-12061984D01*
X8770182Y-12061984D02*
X8893991Y-12061984D01*
X9132087Y-12061984D02*
X9132087Y-11861984D01*
X9217801Y-12061984D02*
X9217801Y-11957222D01*
X9217801Y-11957222D02*
X9208277Y-11938174D01*
X9208277Y-11938174D02*
X9189230Y-11928650D01*
X9189230Y-11928650D02*
X9160658Y-11928650D01*
X9160658Y-11928650D02*
X9141611Y-11938174D01*
X9141611Y-11938174D02*
X9132087Y-11947698D01*
X9341611Y-12061984D02*
X9322563Y-12052460D01*
X9322563Y-12052460D02*
X9313039Y-12042936D01*
X9313039Y-12042936D02*
X9303515Y-12023888D01*
X9303515Y-12023888D02*
X9303515Y-11966746D01*
X9303515Y-11966746D02*
X9313039Y-11947698D01*
X9313039Y-11947698D02*
X9322563Y-11938174D01*
X9322563Y-11938174D02*
X9341611Y-11928650D01*
X9341611Y-11928650D02*
X9370182Y-11928650D01*
X9370182Y-11928650D02*
X9389230Y-11938174D01*
X9389230Y-11938174D02*
X9398753Y-11947698D01*
X9398753Y-11947698D02*
X9408277Y-11966746D01*
X9408277Y-11966746D02*
X9408277Y-12023888D01*
X9408277Y-12023888D02*
X9398753Y-12042936D01*
X9398753Y-12042936D02*
X9389230Y-12052460D01*
X9389230Y-12052460D02*
X9370182Y-12061984D01*
X9370182Y-12061984D02*
X9341611Y-12061984D01*
X9522563Y-12061984D02*
X9503515Y-12052460D01*
X9503515Y-12052460D02*
X9493992Y-12033412D01*
X9493992Y-12033412D02*
X9493992Y-11861984D01*
X9674944Y-12052460D02*
X9655896Y-12061984D01*
X9655896Y-12061984D02*
X9617801Y-12061984D01*
X9617801Y-12061984D02*
X9598753Y-12052460D01*
X9598753Y-12052460D02*
X9589230Y-12033412D01*
X9589230Y-12033412D02*
X9589230Y-11957222D01*
X9589230Y-11957222D02*
X9598753Y-11938174D01*
X9598753Y-11938174D02*
X9617801Y-11928650D01*
X9617801Y-11928650D02*
X9655896Y-11928650D01*
X9655896Y-11928650D02*
X9674944Y-11938174D01*
X9674944Y-11938174D02*
X9684468Y-11957222D01*
X9684468Y-11957222D02*
X9684468Y-11976269D01*
X9684468Y-11976269D02*
X9589230Y-11995317D01*
X9760658Y-12052460D02*
X9779706Y-12061984D01*
X9779706Y-12061984D02*
X9817801Y-12061984D01*
X9817801Y-12061984D02*
X9836849Y-12052460D01*
X9836849Y-12052460D02*
X9846373Y-12033412D01*
X9846373Y-12033412D02*
X9846373Y-12023888D01*
X9846373Y-12023888D02*
X9836849Y-12004841D01*
X9836849Y-12004841D02*
X9817801Y-11995317D01*
X9817801Y-11995317D02*
X9789230Y-11995317D01*
X9789230Y-11995317D02*
X9770182Y-11985793D01*
X9770182Y-11985793D02*
X9760658Y-11966746D01*
X9760658Y-11966746D02*
X9760658Y-11957222D01*
X9760658Y-11957222D02*
X9770182Y-11938174D01*
X9770182Y-11938174D02*
X9789230Y-11928650D01*
X9789230Y-11928650D02*
X9817801Y-11928650D01*
X9817801Y-11928650D02*
X9836849Y-11938174D01*
X9913039Y-12138174D02*
X9922563Y-12128650D01*
X9922563Y-12128650D02*
X9941611Y-12100079D01*
X9941611Y-12100079D02*
X9951134Y-12081031D01*
X9951134Y-12081031D02*
X9960658Y-12052460D01*
X9960658Y-12052460D02*
X9970182Y-12004841D01*
X9970182Y-12004841D02*
X9970182Y-11966746D01*
X9970182Y-11966746D02*
X9960658Y-11919127D01*
X9960658Y-11919127D02*
X9951134Y-11890555D01*
X9951134Y-11890555D02*
X9941611Y-11871508D01*
X9941611Y-11871508D02*
X9922563Y-11842936D01*
X9922563Y-11842936D02*
X9913039Y-11833412D01*
D13*
X4931391Y-12273391D02*
X4931391Y-12195609D01*
X4853609Y-12195609D01*
X4853609Y-12273391D01*
X4931391Y-12273391D01*
D11*
X5313039Y-12325984D02*
X5198753Y-12325984D01*
X5255896Y-12325984D02*
X5255896Y-12125984D01*
X5255896Y-12125984D02*
X5236848Y-12154555D01*
X5236848Y-12154555D02*
X5217801Y-12173603D01*
X5217801Y-12173603D02*
X5198753Y-12183127D01*
X5398753Y-12306936D02*
X5408277Y-12316460D01*
X5408277Y-12316460D02*
X5398753Y-12325984D01*
X5398753Y-12325984D02*
X5389229Y-12316460D01*
X5389229Y-12316460D02*
X5398753Y-12306936D01*
X5398753Y-12306936D02*
X5398753Y-12325984D01*
X5598753Y-12325984D02*
X5484467Y-12325984D01*
X5541610Y-12325984D02*
X5541610Y-12125984D01*
X5541610Y-12125984D02*
X5522563Y-12154555D01*
X5522563Y-12154555D02*
X5503515Y-12173603D01*
X5503515Y-12173603D02*
X5484467Y-12183127D01*
X5722562Y-12125984D02*
X5741610Y-12125984D01*
X5741610Y-12125984D02*
X5760658Y-12135508D01*
X5760658Y-12135508D02*
X5770182Y-12145031D01*
X5770182Y-12145031D02*
X5779705Y-12164079D01*
X5779705Y-12164079D02*
X5789229Y-12202174D01*
X5789229Y-12202174D02*
X5789229Y-12249793D01*
X5789229Y-12249793D02*
X5779705Y-12287888D01*
X5779705Y-12287888D02*
X5770182Y-12306936D01*
X5770182Y-12306936D02*
X5760658Y-12316460D01*
X5760658Y-12316460D02*
X5741610Y-12325984D01*
X5741610Y-12325984D02*
X5722562Y-12325984D01*
X5722562Y-12325984D02*
X5703515Y-12316460D01*
X5703515Y-12316460D02*
X5693991Y-12306936D01*
X5693991Y-12306936D02*
X5684467Y-12287888D01*
X5684467Y-12287888D02*
X5674943Y-12249793D01*
X5674943Y-12249793D02*
X5674943Y-12202174D01*
X5674943Y-12202174D02*
X5684467Y-12164079D01*
X5684467Y-12164079D02*
X5693991Y-12145031D01*
X5693991Y-12145031D02*
X5703515Y-12135508D01*
X5703515Y-12135508D02*
X5722562Y-12125984D01*
X5913039Y-12125984D02*
X5932086Y-12125984D01*
X5932086Y-12125984D02*
X5951134Y-12135508D01*
X5951134Y-12135508D02*
X5960658Y-12145031D01*
X5960658Y-12145031D02*
X5970182Y-12164079D01*
X5970182Y-12164079D02*
X5979705Y-12202174D01*
X5979705Y-12202174D02*
X5979705Y-12249793D01*
X5979705Y-12249793D02*
X5970182Y-12287888D01*
X5970182Y-12287888D02*
X5960658Y-12306936D01*
X5960658Y-12306936D02*
X5951134Y-12316460D01*
X5951134Y-12316460D02*
X5932086Y-12325984D01*
X5932086Y-12325984D02*
X5913039Y-12325984D01*
X5913039Y-12325984D02*
X5893991Y-12316460D01*
X5893991Y-12316460D02*
X5884467Y-12306936D01*
X5884467Y-12306936D02*
X5874943Y-12287888D01*
X5874943Y-12287888D02*
X5865420Y-12249793D01*
X5865420Y-12249793D02*
X5865420Y-12202174D01*
X5865420Y-12202174D02*
X5874943Y-12164079D01*
X5874943Y-12164079D02*
X5884467Y-12145031D01*
X5884467Y-12145031D02*
X5893991Y-12135508D01*
X5893991Y-12135508D02*
X5913039Y-12125984D01*
X6065420Y-12325984D02*
X6065420Y-12192650D01*
X6065420Y-12211698D02*
X6074943Y-12202174D01*
X6074943Y-12202174D02*
X6093991Y-12192650D01*
X6093991Y-12192650D02*
X6122563Y-12192650D01*
X6122563Y-12192650D02*
X6141610Y-12202174D01*
X6141610Y-12202174D02*
X6151134Y-12221222D01*
X6151134Y-12221222D02*
X6151134Y-12325984D01*
X6151134Y-12221222D02*
X6160658Y-12202174D01*
X6160658Y-12202174D02*
X6179705Y-12192650D01*
X6179705Y-12192650D02*
X6208277Y-12192650D01*
X6208277Y-12192650D02*
X6227324Y-12202174D01*
X6227324Y-12202174D02*
X6236848Y-12221222D01*
X6236848Y-12221222D02*
X6236848Y-12325984D01*
X6332086Y-12325984D02*
X6332086Y-12192650D01*
X6332086Y-12211698D02*
X6341610Y-12202174D01*
X6341610Y-12202174D02*
X6360658Y-12192650D01*
X6360658Y-12192650D02*
X6389229Y-12192650D01*
X6389229Y-12192650D02*
X6408277Y-12202174D01*
X6408277Y-12202174D02*
X6417801Y-12221222D01*
X6417801Y-12221222D02*
X6417801Y-12325984D01*
X6417801Y-12221222D02*
X6427324Y-12202174D01*
X6427324Y-12202174D02*
X6446372Y-12192650D01*
X6446372Y-12192650D02*
X6474943Y-12192650D01*
X6474943Y-12192650D02*
X6493991Y-12202174D01*
X6493991Y-12202174D02*
X6503515Y-12221222D01*
X6503515Y-12221222D02*
X6503515Y-12325984D01*
X6893991Y-12116460D02*
X6722563Y-12373603D01*
X7151134Y-12125984D02*
X7170182Y-12125984D01*
X7170182Y-12125984D02*
X7189229Y-12135508D01*
X7189229Y-12135508D02*
X7198753Y-12145031D01*
X7198753Y-12145031D02*
X7208277Y-12164079D01*
X7208277Y-12164079D02*
X7217801Y-12202174D01*
X7217801Y-12202174D02*
X7217801Y-12249793D01*
X7217801Y-12249793D02*
X7208277Y-12287888D01*
X7208277Y-12287888D02*
X7198753Y-12306936D01*
X7198753Y-12306936D02*
X7189229Y-12316460D01*
X7189229Y-12316460D02*
X7170182Y-12325984D01*
X7170182Y-12325984D02*
X7151134Y-12325984D01*
X7151134Y-12325984D02*
X7132086Y-12316460D01*
X7132086Y-12316460D02*
X7122563Y-12306936D01*
X7122563Y-12306936D02*
X7113039Y-12287888D01*
X7113039Y-12287888D02*
X7103515Y-12249793D01*
X7103515Y-12249793D02*
X7103515Y-12202174D01*
X7103515Y-12202174D02*
X7113039Y-12164079D01*
X7113039Y-12164079D02*
X7122563Y-12145031D01*
X7122563Y-12145031D02*
X7132086Y-12135508D01*
X7132086Y-12135508D02*
X7151134Y-12125984D01*
X7303515Y-12306936D02*
X7313039Y-12316460D01*
X7313039Y-12316460D02*
X7303515Y-12325984D01*
X7303515Y-12325984D02*
X7293991Y-12316460D01*
X7293991Y-12316460D02*
X7303515Y-12306936D01*
X7303515Y-12306936D02*
X7303515Y-12325984D01*
X7436848Y-12125984D02*
X7455896Y-12125984D01*
X7455896Y-12125984D02*
X7474944Y-12135508D01*
X7474944Y-12135508D02*
X7484467Y-12145031D01*
X7484467Y-12145031D02*
X7493991Y-12164079D01*
X7493991Y-12164079D02*
X7503515Y-12202174D01*
X7503515Y-12202174D02*
X7503515Y-12249793D01*
X7503515Y-12249793D02*
X7493991Y-12287888D01*
X7493991Y-12287888D02*
X7484467Y-12306936D01*
X7484467Y-12306936D02*
X7474944Y-12316460D01*
X7474944Y-12316460D02*
X7455896Y-12325984D01*
X7455896Y-12325984D02*
X7436848Y-12325984D01*
X7436848Y-12325984D02*
X7417801Y-12316460D01*
X7417801Y-12316460D02*
X7408277Y-12306936D01*
X7408277Y-12306936D02*
X7398753Y-12287888D01*
X7398753Y-12287888D02*
X7389229Y-12249793D01*
X7389229Y-12249793D02*
X7389229Y-12202174D01*
X7389229Y-12202174D02*
X7398753Y-12164079D01*
X7398753Y-12164079D02*
X7408277Y-12145031D01*
X7408277Y-12145031D02*
X7417801Y-12135508D01*
X7417801Y-12135508D02*
X7436848Y-12125984D01*
X7674944Y-12192650D02*
X7674944Y-12325984D01*
X7627325Y-12116460D02*
X7579706Y-12259317D01*
X7579706Y-12259317D02*
X7703515Y-12259317D01*
X7760658Y-12125984D02*
X7884467Y-12125984D01*
X7884467Y-12125984D02*
X7817801Y-12202174D01*
X7817801Y-12202174D02*
X7846372Y-12202174D01*
X7846372Y-12202174D02*
X7865420Y-12211698D01*
X7865420Y-12211698D02*
X7874944Y-12221222D01*
X7874944Y-12221222D02*
X7884467Y-12240269D01*
X7884467Y-12240269D02*
X7884467Y-12287888D01*
X7884467Y-12287888D02*
X7874944Y-12306936D01*
X7874944Y-12306936D02*
X7865420Y-12316460D01*
X7865420Y-12316460D02*
X7846372Y-12325984D01*
X7846372Y-12325984D02*
X7789229Y-12325984D01*
X7789229Y-12325984D02*
X7770182Y-12316460D01*
X7770182Y-12316460D02*
X7760658Y-12306936D01*
X7951134Y-12125984D02*
X8074944Y-12125984D01*
X8074944Y-12125984D02*
X8008277Y-12202174D01*
X8008277Y-12202174D02*
X8036848Y-12202174D01*
X8036848Y-12202174D02*
X8055896Y-12211698D01*
X8055896Y-12211698D02*
X8065420Y-12221222D01*
X8065420Y-12221222D02*
X8074944Y-12240269D01*
X8074944Y-12240269D02*
X8074944Y-12287888D01*
X8074944Y-12287888D02*
X8065420Y-12306936D01*
X8065420Y-12306936D02*
X8055896Y-12316460D01*
X8055896Y-12316460D02*
X8036848Y-12325984D01*
X8036848Y-12325984D02*
X7979706Y-12325984D01*
X7979706Y-12325984D02*
X7960658Y-12316460D01*
X7960658Y-12316460D02*
X7951134Y-12306936D01*
X8151134Y-12125984D02*
X8151134Y-12164079D01*
X8227325Y-12125984D02*
X8227325Y-12164079D01*
X8522563Y-12402174D02*
X8513039Y-12392650D01*
X8513039Y-12392650D02*
X8493991Y-12364079D01*
X8493991Y-12364079D02*
X8484468Y-12345031D01*
X8484468Y-12345031D02*
X8474944Y-12316460D01*
X8474944Y-12316460D02*
X8465420Y-12268841D01*
X8465420Y-12268841D02*
X8465420Y-12230746D01*
X8465420Y-12230746D02*
X8474944Y-12183127D01*
X8474944Y-12183127D02*
X8484468Y-12154555D01*
X8484468Y-12154555D02*
X8493991Y-12135508D01*
X8493991Y-12135508D02*
X8513039Y-12106936D01*
X8513039Y-12106936D02*
X8522563Y-12097412D01*
X8627325Y-12211698D02*
X8608277Y-12202174D01*
X8608277Y-12202174D02*
X8598753Y-12192650D01*
X8598753Y-12192650D02*
X8589230Y-12173603D01*
X8589230Y-12173603D02*
X8589230Y-12164079D01*
X8589230Y-12164079D02*
X8598753Y-12145031D01*
X8598753Y-12145031D02*
X8608277Y-12135508D01*
X8608277Y-12135508D02*
X8627325Y-12125984D01*
X8627325Y-12125984D02*
X8665420Y-12125984D01*
X8665420Y-12125984D02*
X8684468Y-12135508D01*
X8684468Y-12135508D02*
X8693991Y-12145031D01*
X8693991Y-12145031D02*
X8703515Y-12164079D01*
X8703515Y-12164079D02*
X8703515Y-12173603D01*
X8703515Y-12173603D02*
X8693991Y-12192650D01*
X8693991Y-12192650D02*
X8684468Y-12202174D01*
X8684468Y-12202174D02*
X8665420Y-12211698D01*
X8665420Y-12211698D02*
X8627325Y-12211698D01*
X8627325Y-12211698D02*
X8608277Y-12221222D01*
X8608277Y-12221222D02*
X8598753Y-12230746D01*
X8598753Y-12230746D02*
X8589230Y-12249793D01*
X8589230Y-12249793D02*
X8589230Y-12287888D01*
X8589230Y-12287888D02*
X8598753Y-12306936D01*
X8598753Y-12306936D02*
X8608277Y-12316460D01*
X8608277Y-12316460D02*
X8627325Y-12325984D01*
X8627325Y-12325984D02*
X8665420Y-12325984D01*
X8665420Y-12325984D02*
X8684468Y-12316460D01*
X8684468Y-12316460D02*
X8693991Y-12306936D01*
X8693991Y-12306936D02*
X8703515Y-12287888D01*
X8703515Y-12287888D02*
X8703515Y-12249793D01*
X8703515Y-12249793D02*
X8693991Y-12230746D01*
X8693991Y-12230746D02*
X8684468Y-12221222D01*
X8684468Y-12221222D02*
X8665420Y-12211698D01*
X8941611Y-12325984D02*
X8941611Y-12125984D01*
X9027325Y-12325984D02*
X9027325Y-12221222D01*
X9027325Y-12221222D02*
X9017801Y-12202174D01*
X9017801Y-12202174D02*
X8998753Y-12192650D01*
X8998753Y-12192650D02*
X8970182Y-12192650D01*
X8970182Y-12192650D02*
X8951134Y-12202174D01*
X8951134Y-12202174D02*
X8941611Y-12211698D01*
X9151134Y-12325984D02*
X9132087Y-12316460D01*
X9132087Y-12316460D02*
X9122563Y-12306936D01*
X9122563Y-12306936D02*
X9113039Y-12287888D01*
X9113039Y-12287888D02*
X9113039Y-12230746D01*
X9113039Y-12230746D02*
X9122563Y-12211698D01*
X9122563Y-12211698D02*
X9132087Y-12202174D01*
X9132087Y-12202174D02*
X9151134Y-12192650D01*
X9151134Y-12192650D02*
X9179706Y-12192650D01*
X9179706Y-12192650D02*
X9198753Y-12202174D01*
X9198753Y-12202174D02*
X9208277Y-12211698D01*
X9208277Y-12211698D02*
X9217801Y-12230746D01*
X9217801Y-12230746D02*
X9217801Y-12287888D01*
X9217801Y-12287888D02*
X9208277Y-12306936D01*
X9208277Y-12306936D02*
X9198753Y-12316460D01*
X9198753Y-12316460D02*
X9179706Y-12325984D01*
X9179706Y-12325984D02*
X9151134Y-12325984D01*
X9332087Y-12325984D02*
X9313039Y-12316460D01*
X9313039Y-12316460D02*
X9303515Y-12297412D01*
X9303515Y-12297412D02*
X9303515Y-12125984D01*
X9484468Y-12316460D02*
X9465420Y-12325984D01*
X9465420Y-12325984D02*
X9427325Y-12325984D01*
X9427325Y-12325984D02*
X9408277Y-12316460D01*
X9408277Y-12316460D02*
X9398753Y-12297412D01*
X9398753Y-12297412D02*
X9398753Y-12221222D01*
X9398753Y-12221222D02*
X9408277Y-12202174D01*
X9408277Y-12202174D02*
X9427325Y-12192650D01*
X9427325Y-12192650D02*
X9465420Y-12192650D01*
X9465420Y-12192650D02*
X9484468Y-12202174D01*
X9484468Y-12202174D02*
X9493992Y-12221222D01*
X9493992Y-12221222D02*
X9493992Y-12240269D01*
X9493992Y-12240269D02*
X9398753Y-12259317D01*
X9570182Y-12316460D02*
X9589230Y-12325984D01*
X9589230Y-12325984D02*
X9627325Y-12325984D01*
X9627325Y-12325984D02*
X9646373Y-12316460D01*
X9646373Y-12316460D02*
X9655896Y-12297412D01*
X9655896Y-12297412D02*
X9655896Y-12287888D01*
X9655896Y-12287888D02*
X9646373Y-12268841D01*
X9646373Y-12268841D02*
X9627325Y-12259317D01*
X9627325Y-12259317D02*
X9598753Y-12259317D01*
X9598753Y-12259317D02*
X9579706Y-12249793D01*
X9579706Y-12249793D02*
X9570182Y-12230746D01*
X9570182Y-12230746D02*
X9570182Y-12221222D01*
X9570182Y-12221222D02*
X9579706Y-12202174D01*
X9579706Y-12202174D02*
X9598753Y-12192650D01*
X9598753Y-12192650D02*
X9627325Y-12192650D01*
X9627325Y-12192650D02*
X9646373Y-12202174D01*
X9722563Y-12402174D02*
X9732087Y-12392650D01*
X9732087Y-12392650D02*
X9751134Y-12364079D01*
X9751134Y-12364079D02*
X9760658Y-12345031D01*
X9760658Y-12345031D02*
X9770182Y-12316460D01*
X9770182Y-12316460D02*
X9779706Y-12268841D01*
X9779706Y-12268841D02*
X9779706Y-12230746D01*
X9779706Y-12230746D02*
X9770182Y-12183127D01*
X9770182Y-12183127D02*
X9760658Y-12154555D01*
X9760658Y-12154555D02*
X9751134Y-12135508D01*
X9751134Y-12135508D02*
X9732087Y-12106936D01*
X9732087Y-12106936D02*
X9722563Y-12097412D01*
X4847500Y-12598500D02*
X4947500Y-12498500D01*
X4847500Y-12398500D01*
X4747500Y-12498500D01*
X4847500Y-12598500D01*
X5189229Y-12389984D02*
X5313039Y-12389984D01*
X5313039Y-12389984D02*
X5246372Y-12466174D01*
X5246372Y-12466174D02*
X5274944Y-12466174D01*
X5274944Y-12466174D02*
X5293991Y-12475698D01*
X5293991Y-12475698D02*
X5303515Y-12485222D01*
X5303515Y-12485222D02*
X5313039Y-12504269D01*
X5313039Y-12504269D02*
X5313039Y-12551888D01*
X5313039Y-12551888D02*
X5303515Y-12570936D01*
X5303515Y-12570936D02*
X5293991Y-12580460D01*
X5293991Y-12580460D02*
X5274944Y-12589984D01*
X5274944Y-12589984D02*
X5217801Y-12589984D01*
X5217801Y-12589984D02*
X5198753Y-12580460D01*
X5198753Y-12580460D02*
X5189229Y-12570936D01*
X5398753Y-12570936D02*
X5408277Y-12580460D01*
X5408277Y-12580460D02*
X5398753Y-12589984D01*
X5398753Y-12589984D02*
X5389229Y-12580460D01*
X5389229Y-12580460D02*
X5398753Y-12570936D01*
X5398753Y-12570936D02*
X5398753Y-12589984D01*
X5589229Y-12389984D02*
X5493991Y-12389984D01*
X5493991Y-12389984D02*
X5484467Y-12485222D01*
X5484467Y-12485222D02*
X5493991Y-12475698D01*
X5493991Y-12475698D02*
X5513039Y-12466174D01*
X5513039Y-12466174D02*
X5560658Y-12466174D01*
X5560658Y-12466174D02*
X5579705Y-12475698D01*
X5579705Y-12475698D02*
X5589229Y-12485222D01*
X5589229Y-12485222D02*
X5598753Y-12504269D01*
X5598753Y-12504269D02*
X5598753Y-12551888D01*
X5598753Y-12551888D02*
X5589229Y-12570936D01*
X5589229Y-12570936D02*
X5579705Y-12580460D01*
X5579705Y-12580460D02*
X5560658Y-12589984D01*
X5560658Y-12589984D02*
X5513039Y-12589984D01*
X5513039Y-12589984D02*
X5493991Y-12580460D01*
X5493991Y-12580460D02*
X5484467Y-12570936D01*
X5722562Y-12389984D02*
X5741610Y-12389984D01*
X5741610Y-12389984D02*
X5760658Y-12399508D01*
X5760658Y-12399508D02*
X5770182Y-12409031D01*
X5770182Y-12409031D02*
X5779705Y-12428079D01*
X5779705Y-12428079D02*
X5789229Y-12466174D01*
X5789229Y-12466174D02*
X5789229Y-12513793D01*
X5789229Y-12513793D02*
X5779705Y-12551888D01*
X5779705Y-12551888D02*
X5770182Y-12570936D01*
X5770182Y-12570936D02*
X5760658Y-12580460D01*
X5760658Y-12580460D02*
X5741610Y-12589984D01*
X5741610Y-12589984D02*
X5722562Y-12589984D01*
X5722562Y-12589984D02*
X5703515Y-12580460D01*
X5703515Y-12580460D02*
X5693991Y-12570936D01*
X5693991Y-12570936D02*
X5684467Y-12551888D01*
X5684467Y-12551888D02*
X5674943Y-12513793D01*
X5674943Y-12513793D02*
X5674943Y-12466174D01*
X5674943Y-12466174D02*
X5684467Y-12428079D01*
X5684467Y-12428079D02*
X5693991Y-12409031D01*
X5693991Y-12409031D02*
X5703515Y-12399508D01*
X5703515Y-12399508D02*
X5722562Y-12389984D01*
X5913039Y-12389984D02*
X5932086Y-12389984D01*
X5932086Y-12389984D02*
X5951134Y-12399508D01*
X5951134Y-12399508D02*
X5960658Y-12409031D01*
X5960658Y-12409031D02*
X5970182Y-12428079D01*
X5970182Y-12428079D02*
X5979705Y-12466174D01*
X5979705Y-12466174D02*
X5979705Y-12513793D01*
X5979705Y-12513793D02*
X5970182Y-12551888D01*
X5970182Y-12551888D02*
X5960658Y-12570936D01*
X5960658Y-12570936D02*
X5951134Y-12580460D01*
X5951134Y-12580460D02*
X5932086Y-12589984D01*
X5932086Y-12589984D02*
X5913039Y-12589984D01*
X5913039Y-12589984D02*
X5893991Y-12580460D01*
X5893991Y-12580460D02*
X5884467Y-12570936D01*
X5884467Y-12570936D02*
X5874943Y-12551888D01*
X5874943Y-12551888D02*
X5865420Y-12513793D01*
X5865420Y-12513793D02*
X5865420Y-12466174D01*
X5865420Y-12466174D02*
X5874943Y-12428079D01*
X5874943Y-12428079D02*
X5884467Y-12409031D01*
X5884467Y-12409031D02*
X5893991Y-12399508D01*
X5893991Y-12399508D02*
X5913039Y-12389984D01*
X6065420Y-12589984D02*
X6065420Y-12456650D01*
X6065420Y-12475698D02*
X6074943Y-12466174D01*
X6074943Y-12466174D02*
X6093991Y-12456650D01*
X6093991Y-12456650D02*
X6122563Y-12456650D01*
X6122563Y-12456650D02*
X6141610Y-12466174D01*
X6141610Y-12466174D02*
X6151134Y-12485222D01*
X6151134Y-12485222D02*
X6151134Y-12589984D01*
X6151134Y-12485222D02*
X6160658Y-12466174D01*
X6160658Y-12466174D02*
X6179705Y-12456650D01*
X6179705Y-12456650D02*
X6208277Y-12456650D01*
X6208277Y-12456650D02*
X6227324Y-12466174D01*
X6227324Y-12466174D02*
X6236848Y-12485222D01*
X6236848Y-12485222D02*
X6236848Y-12589984D01*
X6332086Y-12589984D02*
X6332086Y-12456650D01*
X6332086Y-12475698D02*
X6341610Y-12466174D01*
X6341610Y-12466174D02*
X6360658Y-12456650D01*
X6360658Y-12456650D02*
X6389229Y-12456650D01*
X6389229Y-12456650D02*
X6408277Y-12466174D01*
X6408277Y-12466174D02*
X6417801Y-12485222D01*
X6417801Y-12485222D02*
X6417801Y-12589984D01*
X6417801Y-12485222D02*
X6427324Y-12466174D01*
X6427324Y-12466174D02*
X6446372Y-12456650D01*
X6446372Y-12456650D02*
X6474943Y-12456650D01*
X6474943Y-12456650D02*
X6493991Y-12466174D01*
X6493991Y-12466174D02*
X6503515Y-12485222D01*
X6503515Y-12485222D02*
X6503515Y-12589984D01*
X6893991Y-12380460D02*
X6722563Y-12637603D01*
X7151134Y-12389984D02*
X7170182Y-12389984D01*
X7170182Y-12389984D02*
X7189229Y-12399508D01*
X7189229Y-12399508D02*
X7198753Y-12409031D01*
X7198753Y-12409031D02*
X7208277Y-12428079D01*
X7208277Y-12428079D02*
X7217801Y-12466174D01*
X7217801Y-12466174D02*
X7217801Y-12513793D01*
X7217801Y-12513793D02*
X7208277Y-12551888D01*
X7208277Y-12551888D02*
X7198753Y-12570936D01*
X7198753Y-12570936D02*
X7189229Y-12580460D01*
X7189229Y-12580460D02*
X7170182Y-12589984D01*
X7170182Y-12589984D02*
X7151134Y-12589984D01*
X7151134Y-12589984D02*
X7132086Y-12580460D01*
X7132086Y-12580460D02*
X7122563Y-12570936D01*
X7122563Y-12570936D02*
X7113039Y-12551888D01*
X7113039Y-12551888D02*
X7103515Y-12513793D01*
X7103515Y-12513793D02*
X7103515Y-12466174D01*
X7103515Y-12466174D02*
X7113039Y-12428079D01*
X7113039Y-12428079D02*
X7122563Y-12409031D01*
X7122563Y-12409031D02*
X7132086Y-12399508D01*
X7132086Y-12399508D02*
X7151134Y-12389984D01*
X7303515Y-12570936D02*
X7313039Y-12580460D01*
X7313039Y-12580460D02*
X7303515Y-12589984D01*
X7303515Y-12589984D02*
X7293991Y-12580460D01*
X7293991Y-12580460D02*
X7303515Y-12570936D01*
X7303515Y-12570936D02*
X7303515Y-12589984D01*
X7503515Y-12589984D02*
X7389229Y-12589984D01*
X7446372Y-12589984D02*
X7446372Y-12389984D01*
X7446372Y-12389984D02*
X7427325Y-12418555D01*
X7427325Y-12418555D02*
X7408277Y-12437603D01*
X7408277Y-12437603D02*
X7389229Y-12447127D01*
X7570182Y-12389984D02*
X7693991Y-12389984D01*
X7693991Y-12389984D02*
X7627325Y-12466174D01*
X7627325Y-12466174D02*
X7655896Y-12466174D01*
X7655896Y-12466174D02*
X7674944Y-12475698D01*
X7674944Y-12475698D02*
X7684467Y-12485222D01*
X7684467Y-12485222D02*
X7693991Y-12504269D01*
X7693991Y-12504269D02*
X7693991Y-12551888D01*
X7693991Y-12551888D02*
X7684467Y-12570936D01*
X7684467Y-12570936D02*
X7674944Y-12580460D01*
X7674944Y-12580460D02*
X7655896Y-12589984D01*
X7655896Y-12589984D02*
X7598753Y-12589984D01*
X7598753Y-12589984D02*
X7579706Y-12580460D01*
X7579706Y-12580460D02*
X7570182Y-12570936D01*
X7760658Y-12389984D02*
X7893991Y-12389984D01*
X7893991Y-12389984D02*
X7808277Y-12589984D01*
X7998753Y-12475698D02*
X7979706Y-12466174D01*
X7979706Y-12466174D02*
X7970182Y-12456650D01*
X7970182Y-12456650D02*
X7960658Y-12437603D01*
X7960658Y-12437603D02*
X7960658Y-12428079D01*
X7960658Y-12428079D02*
X7970182Y-12409031D01*
X7970182Y-12409031D02*
X7979706Y-12399508D01*
X7979706Y-12399508D02*
X7998753Y-12389984D01*
X7998753Y-12389984D02*
X8036848Y-12389984D01*
X8036848Y-12389984D02*
X8055896Y-12399508D01*
X8055896Y-12399508D02*
X8065420Y-12409031D01*
X8065420Y-12409031D02*
X8074944Y-12428079D01*
X8074944Y-12428079D02*
X8074944Y-12437603D01*
X8074944Y-12437603D02*
X8065420Y-12456650D01*
X8065420Y-12456650D02*
X8055896Y-12466174D01*
X8055896Y-12466174D02*
X8036848Y-12475698D01*
X8036848Y-12475698D02*
X7998753Y-12475698D01*
X7998753Y-12475698D02*
X7979706Y-12485222D01*
X7979706Y-12485222D02*
X7970182Y-12494746D01*
X7970182Y-12494746D02*
X7960658Y-12513793D01*
X7960658Y-12513793D02*
X7960658Y-12551888D01*
X7960658Y-12551888D02*
X7970182Y-12570936D01*
X7970182Y-12570936D02*
X7979706Y-12580460D01*
X7979706Y-12580460D02*
X7998753Y-12589984D01*
X7998753Y-12589984D02*
X8036848Y-12589984D01*
X8036848Y-12589984D02*
X8055896Y-12580460D01*
X8055896Y-12580460D02*
X8065420Y-12570936D01*
X8065420Y-12570936D02*
X8074944Y-12551888D01*
X8074944Y-12551888D02*
X8074944Y-12513793D01*
X8074944Y-12513793D02*
X8065420Y-12494746D01*
X8065420Y-12494746D02*
X8055896Y-12485222D01*
X8055896Y-12485222D02*
X8036848Y-12475698D01*
X8151134Y-12389984D02*
X8151134Y-12428079D01*
X8227325Y-12389984D02*
X8227325Y-12428079D01*
X8522563Y-12666174D02*
X8513039Y-12656650D01*
X8513039Y-12656650D02*
X8493991Y-12628079D01*
X8493991Y-12628079D02*
X8484468Y-12609031D01*
X8484468Y-12609031D02*
X8474944Y-12580460D01*
X8474944Y-12580460D02*
X8465420Y-12532841D01*
X8465420Y-12532841D02*
X8465420Y-12494746D01*
X8465420Y-12494746D02*
X8474944Y-12447127D01*
X8474944Y-12447127D02*
X8484468Y-12418555D01*
X8484468Y-12418555D02*
X8493991Y-12399508D01*
X8493991Y-12399508D02*
X8513039Y-12370936D01*
X8513039Y-12370936D02*
X8522563Y-12361412D01*
X8684468Y-12456650D02*
X8684468Y-12589984D01*
X8636849Y-12380460D02*
X8589230Y-12523317D01*
X8589230Y-12523317D02*
X8713039Y-12523317D01*
X8941611Y-12589984D02*
X8941611Y-12389984D01*
X9027325Y-12589984D02*
X9027325Y-12485222D01*
X9027325Y-12485222D02*
X9017801Y-12466174D01*
X9017801Y-12466174D02*
X8998753Y-12456650D01*
X8998753Y-12456650D02*
X8970182Y-12456650D01*
X8970182Y-12456650D02*
X8951134Y-12466174D01*
X8951134Y-12466174D02*
X8941611Y-12475698D01*
X9151134Y-12589984D02*
X9132087Y-12580460D01*
X9132087Y-12580460D02*
X9122563Y-12570936D01*
X9122563Y-12570936D02*
X9113039Y-12551888D01*
X9113039Y-12551888D02*
X9113039Y-12494746D01*
X9113039Y-12494746D02*
X9122563Y-12475698D01*
X9122563Y-12475698D02*
X9132087Y-12466174D01*
X9132087Y-12466174D02*
X9151134Y-12456650D01*
X9151134Y-12456650D02*
X9179706Y-12456650D01*
X9179706Y-12456650D02*
X9198753Y-12466174D01*
X9198753Y-12466174D02*
X9208277Y-12475698D01*
X9208277Y-12475698D02*
X9217801Y-12494746D01*
X9217801Y-12494746D02*
X9217801Y-12551888D01*
X9217801Y-12551888D02*
X9208277Y-12570936D01*
X9208277Y-12570936D02*
X9198753Y-12580460D01*
X9198753Y-12580460D02*
X9179706Y-12589984D01*
X9179706Y-12589984D02*
X9151134Y-12589984D01*
X9332087Y-12589984D02*
X9313039Y-12580460D01*
X9313039Y-12580460D02*
X9303515Y-12561412D01*
X9303515Y-12561412D02*
X9303515Y-12389984D01*
X9484468Y-12580460D02*
X9465420Y-12589984D01*
X9465420Y-12589984D02*
X9427325Y-12589984D01*
X9427325Y-12589984D02*
X9408277Y-12580460D01*
X9408277Y-12580460D02*
X9398753Y-12561412D01*
X9398753Y-12561412D02*
X9398753Y-12485222D01*
X9398753Y-12485222D02*
X9408277Y-12466174D01*
X9408277Y-12466174D02*
X9427325Y-12456650D01*
X9427325Y-12456650D02*
X9465420Y-12456650D01*
X9465420Y-12456650D02*
X9484468Y-12466174D01*
X9484468Y-12466174D02*
X9493992Y-12485222D01*
X9493992Y-12485222D02*
X9493992Y-12504269D01*
X9493992Y-12504269D02*
X9398753Y-12523317D01*
X9570182Y-12580460D02*
X9589230Y-12589984D01*
X9589230Y-12589984D02*
X9627325Y-12589984D01*
X9627325Y-12589984D02*
X9646373Y-12580460D01*
X9646373Y-12580460D02*
X9655896Y-12561412D01*
X9655896Y-12561412D02*
X9655896Y-12551888D01*
X9655896Y-12551888D02*
X9646373Y-12532841D01*
X9646373Y-12532841D02*
X9627325Y-12523317D01*
X9627325Y-12523317D02*
X9598753Y-12523317D01*
X9598753Y-12523317D02*
X9579706Y-12513793D01*
X9579706Y-12513793D02*
X9570182Y-12494746D01*
X9570182Y-12494746D02*
X9570182Y-12485222D01*
X9570182Y-12485222D02*
X9579706Y-12466174D01*
X9579706Y-12466174D02*
X9598753Y-12456650D01*
X9598753Y-12456650D02*
X9627325Y-12456650D01*
X9627325Y-12456650D02*
X9646373Y-12466174D01*
X9722563Y-12666174D02*
X9732087Y-12656650D01*
X9732087Y-12656650D02*
X9751134Y-12628079D01*
X9751134Y-12628079D02*
X9760658Y-12609031D01*
X9760658Y-12609031D02*
X9770182Y-12580460D01*
X9770182Y-12580460D02*
X9779706Y-12532841D01*
X9779706Y-12532841D02*
X9779706Y-12494746D01*
X9779706Y-12494746D02*
X9770182Y-12447127D01*
X9770182Y-12447127D02*
X9760658Y-12418555D01*
X9760658Y-12418555D02*
X9751134Y-12399508D01*
X9751134Y-12399508D02*
X9732087Y-12370936D01*
X9732087Y-12370936D02*
X9722563Y-12361412D01*
M02*
